<svg xmlns="http://www.w3.org/2000/svg" viewBox="0 0 322.01 322.01"><defs><style>.cls-1{fill:#fff;}.cls-1,.cls-2,.cls-4{stroke:#231f20;}.cls-1,.cls-2{stroke-linecap:round;stroke-linejoin:round;stroke-width:3px;}.cls-2,.cls-4{fill:none;}.cls-3{fill:#231f20;}.cls-4{stroke-miterlimit:10;stroke-width:6px;}</style></defs><g id="coughing"><rect class="cls-1" x="101.32" y="163.39" width="56.32" height="89.23" rx="7.09" transform="translate(68.17 -51.3) rotate(21.76)"/><path class="cls-1" d="M233.76,162c-3.41,1.63-17.41.24-17.41.24s-1.56,8.91-2.21,16.43c0,.38-26.23-3.11-32.85-5.64,7.44,15.61,25.5,17.89,25.5,17.89-10.79,16.68-20.59,27-59.26,12.75-32.27-11.87-49.15-53-36.19-96.29S159.62,45,192.57,54.82c26.47,7.92,51,30.64,32.6,71.83C221.81,134.19,239.39,159.25,233.76,162Z" transform="translate(-18.16 -18.12)"/><path class="cls-1" d="M44,254.55C64.89,222,95.41,199,98.19,203.62c15.2,25.5,41,30.65,57.61,30.65,11.76,0,38.58,81.49,40.94,99.53" transform="translate(-18.16 -18.12)"/><line class="cls-2" x1="209.22" y1="160.5" x2="241.58" y2="155.6"/><line class="cls-2" x1="208.24" y1="174.23" x2="231.78" y2="183.05"/><line class="cls-2" x1="202.36" y1="185.01" x2="217.07" y2="205.61"/><path class="cls-3" d="M170,113.41c-12.75-4.17-30.16,1.22-22.8,30.64-10.54,13.48-35.79,33.34-37.51,29.17s-13.48-70.11-2.45-94.62c13.63-30.3,38.72-36.09,50-35.55,20.35,1,62.51,11.52,82.61,28.93,10.35,9-5.63,26.47-15.2,25.49s-33.34-3.67-38.48-.24S170,113.41,170,113.41Z" transform="translate(-18.16 -18.12)"/><path class="cls-2" d="M232.6,321.11c2.73-10.59,4.52-17.15,4.1-24.82-.49-8.83.56-36.17,1.84-42.41,1.22-6,13.27-35.83,20.22-34.81,5,.73,5.52,6.37,2.94,12-3.5,7.67-5,19.61-3.55,19.73,4.14.35,15.93-19.12,16.42-24.51s-3.06-32.12,2.33-36c0,0,5.34-6.4,8.34,3.56,3.06,10.17,8.33,32,5.88,39.22-2.14,6.32-25,47.07-27.95,62.76a65.22,65.22,0,0,0-1.16,14" transform="translate(-18.16 -18.12)"/></g><g id="circle"><circle class="cls-4" cx="161.01" cy="161.01" r="158.01"/></g></svg>