<svg xmlns="http://www.w3.org/2000/svg" viewBox="0 0 225.67 334.12"><defs><style>.cls-1,.cls-3{fill:#fff;}.cls-1,.cls-2,.cls-3,.cls-4{stroke:#231f20;stroke-linecap:round;stroke-linejoin:round;}.cls-1{stroke-width:2px;}.cls-2,.cls-4{fill:none;}.cls-2,.cls-3{stroke-width:3px;}.cls-4{stroke-width:6px;}</style></defs><g id="handle"><path class="cls-1" d="M173.14,339.85c-1.9,2.74-5.83,4.95-15.29,1.06l-55-21.27-3.17-1.23-.3-.17A31.47,31.47,0,0,1,93,313.4c-3.15-3-5.72-6.66-5.72-9.67,0-.11,0-.2,0-.31a6.26,6.26,0,0,1,12.51,0,6.76,6.76,0,0,1-.24,1.77,6,6,0,0,0,2.28,3.42,5.47,5.47,0,0,0,1.39.69l4.6,1.75,2.36.91,51.3,19.53c1.39.63,1.65-.14,1.65-.14.76-3.16,3.15-4.9,6.64-3.76C174.66,329.2,175.17,336.94,173.14,339.85Z" transform="translate(-71.2 -11.34)"/><path class="cls-2" d="M91.85,282a18.94,18.94,0,0,0-15.12,30.32,18.94,18.94,0,0,1,31.77-20.42A19,19,0,0,0,91.85,282ZM93,292.43a10.49,10.49,0,0,0-.06,21c-3.15-3-5.72-6.66-5.72-9.67,0-.11,0-.2,0-.31a6.26,6.26,0,0,1,12.51,0,6.76,6.76,0,0,1-.24,1.77,6,6,0,0,0,2.28,3.42A10.49,10.49,0,0,0,93,292.43Z" transform="translate(-71.2 -11.34)"/><path class="cls-2" d="M93,292.43a10.49,10.49,0,0,0-.06,21c-3.15-3-5.72-6.66-5.72-9.67,0-.11,0-.2,0-.31a6.26,6.26,0,0,1,12.51,0,6.76,6.76,0,0,1-.24,1.77,6,6,0,0,0,2.28,3.42A10.49,10.49,0,0,0,93,292.43Z" transform="translate(-71.2 -11.34)"/><path class="cls-3" d="M101.71,319.44A19.43,19.43,0,0,1,92,321.53c-7.19,0-12.08-3.35-15.29-9.25a18.94,18.94,0,0,1,31.77-20.42,19,19,0,0,1-.68,19.19l-4.6-1.75a5.47,5.47,0,0,1-1.39-.69A10.48,10.48,0,1,0,93,313.4a53.45,53.45,0,0,0,8.73,6" transform="translate(-71.2 -11.34)"/><path class="cls-3" d="M93,292.43a10.49,10.49,0,0,0-.06,21c-3.15-3-5.72-6.66-5.72-9.67,0-.11,0-.2,0-.31a6.26,6.26,0,0,1,12.51,0,6.76,6.76,0,0,1-.24,1.77,6,6,0,0,0,2.28,3.42A10.49,10.49,0,0,0,93,292.43Z" transform="translate(-71.2 -11.34)"/><path class="cls-2" d="M96.58,303.09a13.94,13.94,0,0,0,4.56,5.32" transform="translate(-71.2 -11.34)"/><path class="cls-2" d="M163,332s2.6,1.08,3.81.64" transform="translate(-71.2 -11.34)"/><path class="cls-2" d="M169.53,328.54c-3.48-1.14-5.88.6-6.63,3.76,0,0-.26.77-1.66.14L110,312.91l-2.36-.9a18.92,18.92,0,1,0-31.09,1.23c3.21,5.89,8.1,9.24,15.29,9.24a19.43,19.43,0,0,0,9.69-2.09c-.37-.2-.83-.47-1.35-.78l2.52,1,55,21.28c9.46,3.88,13.39,1.67,15.29-1.06C174.94,337.89,174.43,330.15,169.53,328.54Z" transform="translate(-71.2 -11.34)"/></g><g id="elbow"><path class="cls-3" d="M273.07,124.33c-23.34-16.14-60,19.77-96.89,73.13-4,5.84-4.78,16.56-8.45,22.3-13.48-16.15-29.44-38.25-33.46-57.12-12.17-57.13,2-71-26.67-69.66-12,.56-22.27,1.57-23.69,17.94C82,133.21,92.28,176.17,98.78,213c8.32,47.14,36.13,105.37,37.52,106.48,7.57,6.95,18.63,10.81,26.7,6.76.37-.19,58.53-37,85.53-76.07C285.42,196.81,296.41,140.47,273.07,124.33Z" transform="translate(-71.2 -11.34)"/><path class="cls-3" d="M114,107.88c24.34,4.06,40.9-18.59,45.63-30.76s18.19-20.41,21.3-22c6.55-3.3,8.79-12.51,5.41-15.55s-10.65-3-13.69.34c-.83.89,2.53-8.11-.85-12.85s-52.14-14-57.46-13c-5.06,1-8.37,4.82-7.69,6.34-2.12,0-8.37,5.91-8.2,8-2.11,0-10.82,9.29-10.14,11.83,1.71,6.41-7.78,59.83-4.06,69" transform="translate(-71.2 -11.34)"/><path class="cls-2" d="M108.58,31.83c12.85,4.39,34.06,5.78,35.41,12.54s-3.55,25.44-6.47,28.91c-2.72,3.24-8.32,8.57-11.7,7.56s-5.66-9.34.42-14.28c2.28-1.86-.76-5.66-.76-5.66l-3.29-.81-4.48,2.83s-7.52,0-10.23-4.09" transform="translate(-71.2 -11.34)"/><path class="cls-2" d="M112.3,47.37a31.64,31.64,0,0,0,9.46,12.51" transform="translate(-71.2 -11.34)"/><path class="cls-2" d="M125.48,60.9a17.72,17.72,0,0,0,8.11-3" transform="translate(-71.2 -11.34)"/><path class="cls-2" d="M127.17,66c1,1.35,5.75,3,5.75,3" transform="translate(-71.2 -11.34)"/><path class="cls-2" d="M126.62,25.11c6.34,1.65,25.9,7.39,27.93,10.1s2.71,10.81,1.69,16.22-5.91,18.47-7.56,21.34c-1.55,2.7-7.61,10.77-11,11.41-4.7.87-8.79-3.34-8.79-3.34" transform="translate(-71.2 -11.34)"/><path class="cls-2" d="M137.14,21.43c6.05,1.61,26.88,5.66,28.57,8.71s1,19.39.08,23.11c-.92,3.52-5.32,15.72-7.18,18.8-2,3.3-5.88,8.83-10.19,10.61s-6.59.63-6.59.63" transform="translate(-71.2 -11.34)"/><path class="cls-2" d="M172.89,35.88c-1,4.4-1.52,20.79-2.11,24-.55,3-4.86,10.48-7.44,10.82-4.7.62-3.38.17-3.38.17" transform="translate(-71.2 -11.34)"/><path class="cls-2" d="M117.71,62.92c3.72,6.76,8.79,27.38-4.06,34.82" transform="translate(-71.2 -11.34)"/><path class="cls-3" d="M268.8,38.92c-10.14,7.44-112.22,157.52-103.43,171.72s84.5,48,105.12,31.1c5.41-18.26,2.37-26.37,13.52-33.47s10.14-7.43,10.14-7.43L268.8,38.92" transform="translate(-71.2 -11.34)"/><path class="cls-2" d="M167.73,219.76c5.07,9.13,17.24,55.44,0,79.1" transform="translate(-71.2 -11.34)"/><path class="cls-2" d="M125,80.5c.64-2.41,4.31-6.21,7.36-6.21s3.17.76,3.17.76" transform="translate(-71.2 -11.34)"/><path class="cls-2" d="M145.64,76.7c-2.67-.51-4.06-.76-6,.89a50.31,50.31,0,0,0-5.07,6" transform="translate(-71.2 -11.34)"/><path class="cls-2" d="M154.64,77.08c-2.41-.38-5.33.13-6.34,1.14a42.26,42.26,0,0,0-3.42,5.2" transform="translate(-71.2 -11.34)"/><path class="cls-4" d="M293.84,201.17,268.49,39.26C258.35,46.69,156.26,196.78,165.05,211a21.58,21.58,0,0,0,4.43,4.7,22.42,22.42,0,0,1-2.06,4.43C153.93,203.94,138,181.84,134,163c-5.79-27.18-5.61-44.56-6.92-55.17,17-4,28.47-20.56,32.28-30.35,4.73-12.16,18.18-20.4,21.29-22,6.55-3.29,8.79-12.5,5.41-15.55s-10.65-3-13.69.34c-.83.9,2.53-8.11-.85-12.84s-52.14-14-57.46-13c-5.06,1-8.37,4.82-7.69,6.34-2.11,0-8.36,5.92-8.2,8C96,28.78,87.31,38.08,88,40.61c1.7,6.35-7.58,58.77-4.16,68.66-.09.64-.17,1.3-.23,2-2,22.29,8.37,65.24,14.87,102.08,8.32,47.13,36.14,105.37,37.52,106.47,7.58,6.95,18.64,10.81,26.71,6.77.37-.19,58.52-37,85.52-76.08.89-1.28,1.76-2.57,2.62-3.85,8.14.3,15-1,19.35-4.58,5.4-18.25,2.36-26.37,13.52-33.46S293.84,201.17,293.84,201.17Z" transform="translate(-71.2 -11.34)"/><path class="cls-3" d="M169.45,62a3.67,3.67,0,0,0-4.75,2.43c-.41,1.77-1.6,5.91-1.6,5.91C166.32,71,169.73,65.62,169.45,62Z" transform="translate(-71.2 -11.34)"/></g></svg>