<svg id="Elbow" xmlns="http://www.w3.org/2000/svg" viewBox="0 0 235.52 318.86"><defs><style>.cls-1{fill:#fff;}.cls-1,.cls-2,.cls-3{stroke:#231f20;stroke-linecap:round;stroke-linejoin:round;}.cls-1,.cls-2{stroke-width:3px;}.cls-2,.cls-3{fill:none;}.cls-3{stroke-width:6px;}</style></defs><path class="cls-1" d="M204.25,86.52a3.72,3.72,0,0,0-5.37.57c-1,1.52-3.67,5-3.67,5C198,93.85,203.21,90,204.25,86.52Z" transform="translate(-74.32 -17.21)"/><path class="cls-1" d="M279.44,183.1c-16.17-23.74-63.87-3.18-118.15,33.79-5.95,4.05-10.55,13.91-16.1,18-6.86-20.18-13.88-46.86-10.81-66.15,9.31-58.39,27.77-66.31.18-75.51C123,89.39,113,86.61,105.64,101.55c-10,20.34-15.85,64.68-23.13,101.84-9.3,47.55-4.24,112.69-3.33,114.24,4.63,9.32,13.67,17,22.76,16.11.42,0,68.77-13.66,108.49-40.71C264.71,256.06,295.61,206.84,279.44,183.1Z" transform="translate(-74.32 -17.21)"/><path class="cls-1" d="M135.17,109.63c21.51,12.69,45.4-2.67,54.3-12.44s24.61-12.65,28.12-13c7.38-.72,12.85-8.61,10.77-12.71s-9-6.68-13.06-4.67c-1.1.54,5.35-6.74,3.88-12.44S175,22.13,169.64,21.15c-5.12-.93-9.65,1.5-9.57,3.19-2-.77-10.06,2.54-10.66,4.59-2-.76-13.61,4.85-13.89,7.49-.72,6.68-29.13,53.68-28.94,63.65" transform="translate(-74.32 -17.21)"/><path class="cls-2" d="M157.75,35.82c10.54,8.83,30.06,17.87,28.88,24.75S174,83.3,170,85.51c-3.76,2.07-11,5.07-13.81,2.88s-1.95-10.88,5.6-13.33c2.83-.92,1.34-5.63,1.34-5.63l-2.82-2-5.26,1s-7.09-2.78-8.17-7.6" transform="translate(-74.32 -17.21)"/><path class="cls-2" d="M155.6,51.86A32,32,0,0,0,160,67.12" transform="translate(-74.32 -17.21)"/><path class="cls-2" d="M163.13,69.43a17.83,17.83,0,0,0,8.77.08" transform="translate(-74.32 -17.21)"/><path class="cls-2" d="M162.88,74.84c.47,1.64,4.32,5,4.32,5" transform="translate(-74.32 -17.21)"/><path class="cls-2" d="M177.24,36c5.39,3.87,21.77,16.42,22.7,19.71s-1.38,11.21-4.31,16S183.32,87,180.72,89.1c-2.45,2-11.11,7.4-14.57,6.76-4.76-.89-7.09-6.36-7.09-6.36" transform="translate(-74.32 -17.21)"/><path class="cls-2" d="M188.52,36.4c5.12,3.72,23.32,15.14,23.81,18.63s-6.07,18.7-8.34,21.86c-2.15,3-10.75,12.91-13.63,15.14-3.08,2.4-8.76,6.21-13.48,6.31s-6.46-1.8-6.46-1.8" transform="translate(-74.32 -17.21)"/><path class="cls-2" d="M217,63.07c-2.56,3.78-9,19.08-10.74,21.9-1.61,2.63-8.4,8.13-11,7.51-4.67-1.13-3.25-1.07-3.25-1.07" transform="translate(-74.32 -17.21)"/><path class="cls-2" d="M155.05,68.52c1,7.74-1.67,29.06-16.51,31.41" transform="translate(-74.32 -17.21)"/><path class="cls-1" d="M306.51,100.87C294.22,104.2,143.14,208.79,146.28,225.4s62.34,76.12,88,67.66c11.75-15.27,11.84-24,25-26.69S271.49,263,271.49,263l35-162.17" transform="translate(-74.32 -17.21)"/><path class="cls-2" d="M145.19,234.89c1.46,10.46-3.91,58.64-28.81,74.71" transform="translate(-74.32 -17.21)"/><path class="cls-2" d="M155.51,87.77c1.48-2,6.34-4.3,9.21-3.19s2.72,1.87,2.72,1.87" transform="translate(-74.32 -17.21)"/><path class="cls-2" d="M176.41,91.7c-2.33-1.45-3.55-2.2-5.95-1.33a51.33,51.33,0,0,0-7,3.78" transform="translate(-74.32 -17.21)"/><path class="cls-2" d="M184.78,95.34c-2.14-1.24-5.08-1.82-6.41-1.23a43.43,43.43,0,0,0-5.12,3.66" transform="translate(-74.32 -17.21)"/><path class="cls-3" d="M306.84,100.14c-12.28,3.33-163.36,107.92-160.23,124.53a21.71,21.71,0,0,0,2.47,6.05,22.33,22.33,0,0,1-3.56,3.43C138.66,214,131.64,187.29,134.71,168c4.43-27.79,10.93-44.14,13.56-54.64,17.51,2.41,34.37-9.05,41.53-16.91a31,31,0,0,1,5.58-4.78l.27.07a2.43,2.43,0,0,0,.93,0c2.45.43,5.83-1.92,7.36-4.54l.07,0a56.39,56.39,0,0,1,13.91-3.69c7.39-.73,12.85-8.61,10.77-12.72s-9-6.67-13.05-4.66c-1.11.54,5.34-6.74,3.87-12.44S175.37,21.4,170,20.42c-5.13-.93-9.66,1.5-9.58,3.18-2-.77-10.05,2.54-10.66,4.6-2-.77-13.6,4.84-13.89,7.48-.71,6.62-28.54,52.71-28.92,63.32-.32.58-.64,1.17-1,1.81-10,20.35-15.85,64.68-23.12,101.85-9.31,47.54-4.24,112.68-3.34,114.23,4.63,9.32,13.67,17,22.76,16.11.42,0,68.77-13.65,108.5-40.71,1.3-.89,2.59-1.78,3.87-2.69,7.58,3.25,14.52,4.52,19.94,2.73,11.76-15.28,11.84-24.05,25-26.69s12.29-3.33,12.29-3.33Z" transform="translate(-74.32 -17.21)"/></svg>