<svg xmlns="http://www.w3.org/2000/svg" viewBox="0 0 352.83 162.73"><defs><style>.cls-1{fill:none;stroke-linecap:round;stroke-linejoin:round;}.cls-1,.cls-2{stroke:#231f20;stroke-width:6px;}.cls-2{fill:#00aeef;stroke-miterlimit:10;}</style></defs><g id="additional_people" data-name="additional people"><path class="cls-1" d="M312.35,130.11c0,23.49-16.86,50.32-37.65,50.32S237,153.6,237,130.11s11.69-43.18,37.66-42.53C302.61,88.28,312.35,106.62,312.35,130.11Z" transform="translate(-4.86 -83.88)"/><path class="cls-1" d="M253.92,172c0,10.39,1.79,24.91-10.39,31.16-12.79,6.58-34.91,3.38-48.74,18.42" transform="translate(-4.86 -83.88)"/><path class="cls-1" d="M295.11,171.65c0,10.38-1.79,24.91,10.39,31.16,12.93,6.65,35.4,3.3,49.19,18.92" transform="translate(-4.86 -83.88)"/><path class="cls-1" d="M125.43,129.42c0,23.49-16.86,50.32-37.66,50.32s-37.66-26.83-37.66-50.32S61.8,86.24,87.77,86.89C115.68,87.59,125.43,105.93,125.43,129.42Z" transform="translate(-4.86 -83.88)"/><path class="cls-1" d="M67,171.3c0,10.39,1.79,24.91-10.38,31.16-12.8,6.58-34.92,3.38-48.75,18.42" transform="translate(-4.86 -83.88)"/><path class="cls-1" d="M108.18,171c0,10.38-1.79,24.91,10.39,31.16,12.93,6.65,35.4,3.3,49.2,18.92" transform="translate(-4.86 -83.88)"/></g><g id="blue_person" data-name="blue person"><path class="cls-2" d="M160.46,193.86c0,10.39,1.78,24.91-10.39,31.16-12.79,6.58-34.91,3.38-48.74,18.42l159.9.16C247.44,228,225,231.33,212,224.68c-12.17-6.25-10.39-20.78-10.39-31.16" transform="translate(-4.86 -83.88)"/><path class="cls-2" d="M218.89,152c0,23.49-16.86,50.32-37.66,50.32S143.58,175.47,143.58,152s11.68-43.18,37.65-42.53C209.14,110.15,218.89,128.49,218.89,152Z" transform="translate(-4.86 -83.88)"/></g></svg>