<svg id="hand_tissue_handle" data-name="hand, tissue, handle" xmlns="http://www.w3.org/2000/svg" viewBox="0 0 344.28 195.25"><defs><style>.cls-1{fill:#fff;}.cls-1,.cls-2,.cls-3,.cls-4{stroke:#231f20;stroke-linecap:round;stroke-linejoin:round;}.cls-1,.cls-2{stroke-width:3px;}.cls-2,.cls-3,.cls-4{fill:none;}.cls-3{stroke-width:2px;}.cls-4{stroke-width:6px;}</style></defs><path class="cls-1" d="M216.2,149.63a12.94,12.94,0,0,0-14.42-11.19L173,142.06a12.94,12.94,0,0,0-11.26,11.82,8.58,8.58,0,0,0-9.13,1.44l-6.41,5.73a8.38,8.38,0,0,0-1.75,2.26,9.39,9.39,0,0,0-5.26,5.45l-7.35,20.07a9.46,9.46,0,1,0,17.77,6.5l5.75-15.73a8.49,8.49,0,0,0,5.52-2.13l6.41-5.73a8.49,8.49,0,0,0,2.68-4.85,12.7,12.7,0,0,0,6.24.77L205,164.05A13,13,0,0,0,216.2,149.63Z" transform="translate(-6.13 -99.05)"/><path class="cls-1" d="M206.62,136.53a12.94,12.94,0,0,0-14.42-11.19L163.42,129a12.94,12.94,0,0,0-10.35,8,12.9,12.9,0,0,0-11.19.81l-5.55,3.2a12.9,12.9,0,0,0-6.23,8.92,9.37,9.37,0,0,0-4.73,5.22L118,175.15a9.46,9.46,0,1,0,17.76,6.5l6.1-16.67a12.92,12.92,0,0,0,7.35-1.69l5.55-3.2a12.88,12.88,0,0,0,5.48-6.35,12.82,12.82,0,0,0,6.36.82l28.79-3.62A13,13,0,0,0,206.62,136.53Z" transform="translate(-6.13 -99.05)"/><path class="cls-2" d="M125.91,156.81" transform="translate(-6.13 -99.05)"/><line class="cls-2" x1="72.74" y1="110.68" x2="50.01" y2="121.85"/><path class="cls-3" d="M45.32,147.3a36.23,36.23,0,0,0-28.94,58,36.24,36.24,0,0,1,60.79-39.08A36.24,36.24,0,0,0,45.32,147.3Zm2.26,20a20.07,20.07,0,0,0-.11,40.14c-6-5.82-10.93-12.75-10.93-18.51,0-.21,0-.38,0-.59a12,12,0,0,1,23.95,0,12.43,12.43,0,0,1-.47,3.38,11.49,11.49,0,0,0,4.38,6.55,20.09,20.09,0,0,0-16.84-31Z" transform="translate(-6.13 -99.05)"/><path class="cls-2" d="M47.58,167.34a20.07,20.07,0,0,0-.11,40.14c-6-5.82-10.93-12.75-10.93-18.51,0-.21,0-.38,0-.59a12,12,0,0,1,23.95,0,12.43,12.43,0,0,1-.47,3.38,11.49,11.49,0,0,0,4.38,6.55,20.09,20.09,0,0,0-16.84-31Z" transform="translate(-6.13 -99.05)"/><path class="cls-1" d="M64.19,219c-5.35,3.09-11.95,4-18.56,4-13.75,0-26.83-11.88-29.25-17.7S12,194.29,12,188.06a36.24,36.24,0,0,1,65.17-21.81A36.23,36.23,0,0,1,75.88,203l-8.82-3.35a9.89,9.89,0,0,1-2.64-1.32,20.06,20.06,0,1,0-17,9.17c4,3.82,12.84,9.44,16.72,11.55" transform="translate(-6.13 -99.05)"/><path class="cls-1" d="M47.58,167.34a20.07,20.07,0,0,0-.11,40.14c-6-5.82-10.93-12.75-10.93-18.51,0-.21,0-.38,0-.59a12,12,0,0,1,23.95,0,12.43,12.43,0,0,1-.47,3.38,11.49,11.49,0,0,0,4.38,6.55,20.09,20.09,0,0,0-16.84-31Z" transform="translate(-6.13 -99.05)"/><path class="cls-2" d="M54.37,187.74c.72,2.42,5.82,8.73,8.73,10.18" transform="translate(-6.13 -99.05)"/><path class="cls-2" d="M144.8,222.93s3.94,1.63,5.77,1" transform="translate(-6.13 -99.05)"/><path class="cls-1" d="M208,242.73c-3.1,5.57-10.17,10.53-28.91,4.93l-108.75-30-6.26-1.74c-.21-.07-.4-.17-.62-.26a60.45,60.45,0,0,1-13.17-8c-6.57-5.19-12.14-11.6-12.72-17.33,0-.2,0-.38,0-.59a12,12,0,0,1,23.83-2.38,12.45,12.45,0,0,1-.13,3.41,11.5,11.5,0,0,0,5,6.08A10.07,10.07,0,0,0,69,197.87l9.11,2.45,4.67,1.28L184.17,229c2.78.93,3.13-.58,3.13-.58.83-6.17,5.06-9.93,11.92-8.43C208.85,222.15,211.29,236.79,208,242.73Z" transform="translate(-6.13 -99.05)"/><path class="cls-1" d="M93.31,200.23s-13,12.11-13,20.58,8.86,70.49,8.86,70.49,28.12-1.54,28.12-14.25-5.78-13.1,3.85-15,53.93-5,56.62-5.78c1.54-12.33-1.92-34.67-1.92-34.67s-16.56-25-25.42-27.73-10.21-4.75-15.86-5.78c-3.39-.61-13.42,3.08-13.42,3.08Z" transform="translate(-6.13 -99.05)"/><path class="cls-2" d="M124.19,215.42c-1.15,5-5,13.87-3.08,25" transform="translate(-6.13 -99.05)"/><path class="cls-2" d="M146.26,193.85c-3.89,3.63-25.85,24-27.73,25" transform="translate(-6.13 -99.05)"/><path class="cls-1" d="M192.69,209.39s36-.39,44.3-1.93,14.06-7.7,17.91-10.59,38.52-10.6,43-12.33,48.72-7.12,48.72-7.12l-.38-72.61s-46.54,24.57-52,27.15c-10.59,5-26,5.2-37,2.31-10.46-2.75-42.95-23.11-56.81-30.23-6.93-3.56-12.52-3.66-17.06-1.24C174.5,107.5,132,127.47,132,127.47c-2.34,1.35-5.69,5.5-6.16,6.16,0,0-14.19,32.42-17.15,40.37l-7.34,20.08c-1.79,4.89,2.29,3.48,7.21,1.81,5.84-2,15.42-5.18,16.85-7.27,1.65-2.42,2.06-6.47,1-8.12,5,0,15.24-26.77,15.24-26.77,7.7,3.46,32.48-10.85,30-17.91,10.21,6.54,25.86-8.4,25.86-8.4h0" transform="translate(-6.13 -99.05)"/><path class="cls-1" d="M197.56,127.42c-10.07,6.28-15.53,21.2-14.38,34.29S194,208.23,194,208.23" transform="translate(-6.13 -99.05)"/><path class="cls-1" d="M191.92,168.36c-4.57,11.52-29.12,28.39-40.35,35.66l-19.16,5.56c-11.17,1.54-5.2,15-5.2,15A9,9,0,0,0,139,230s19.64-3.08,23.81-4.31c20.29-6.86,46.67-27.83,55.34-29.58" transform="translate(-6.13 -99.05)"/><path class="cls-2" d="M127.79,220c5.39-2.89,7.89-2.7,9.63-.58s5.2,9.44,5.2,9.44" transform="translate(-6.13 -99.05)"/><path class="cls-1" d="M147.43,174.33c4.82,4,6.55,6,9.83,5" transform="translate(-6.13 -99.05)"/><path class="cls-1" d="M164.57,160.27c2.12,3.66,6,7.32,6.74,7.32" transform="translate(-6.13 -99.05)"/><path class="cls-1" d="M159.76,149.68a16,16,0,0,0,.51,4.06" transform="translate(-6.13 -99.05)"/><path class="cls-1" d="M139.73,158.93a4.63,4.63,0,0,0,1.15,5.39" transform="translate(-6.13 -99.05)"/><path class="cls-1" d="M136.84,142.36c-.58,3.47,1.35,9.83,4.82,11.37" transform="translate(-6.13 -99.05)"/><path class="cls-1" d="M168,126.38c-.19,6,2.5,7.89,4.24,9.44" transform="translate(-6.13 -99.05)"/><path class="cls-1" d="M118.54,174a51.6,51.6,0,0,0,7.88,6.55" transform="translate(-6.13 -99.05)"/><path class="cls-1" d="M156.29,212.66c.19,5.2,3.7,12.75,6.48,13" transform="translate(-6.13 -99.05)"/><path class="cls-2" d="M107.37,231.73c-3.08,5.65,7.13,30.81,7.13,30.81" transform="translate(-6.13 -99.05)"/><path class="cls-2" d="M186.3,229.82s3.95,1.64,5.78,1" transform="translate(-6.13 -99.05)"/><polygon class="cls-4" points="122.72 171.31 124.26 161.68 110.4 163.6 122.72 171.31"/><path class="cls-4" d="M158.13,198.41c-2.8-2.73-5.49-4.8-7.71-5.47-8.86-2.7-10.21-4.75-15.86-5.78-3.39-.62-13.41,3.08-13.41,3.08l-27.81,9.08s-1.39,1.29-3.26,3.33l-7.27-2-4.68-1.27-.61-.17A36.22,36.22,0,1,0,9.13,182.62c0,8.17,1.78,16.32,6.37,22.4,4.69,8.63,12.39,13.86,21.58,16.52a35.05,35.05,0,0,0,28.84-4l14.36,3.24s3.32,61,8.86,70.49M98,290l-8.9,1.3c8.33-1.41,28.15-6.72,28.15-15.16,0-12.71-5.77-13.1,3.86-15s53.92-5,56.62-5.77a68,68,0,0,0,.38-8.86l.95.27c18.75,5.59,25.81.63,28.92-4.93,3.3-5.94.86-20.58-8.77-22.72-6.85-1.5-11.08,2.26-11.91,8.43,0,0-.35,1.51-3.14.57L176.58,226c-.17-1.36-.64-4.42-.76-5.31M72.25,293.38" transform="translate(-6.13 -99.05)"/><path class="cls-4" d="M151.28,193.88l4.92-13.37a8.5,8.5,0,0,0,5.51-2.13l6.42-5.74a8.44,8.44,0,0,0,2.67-4.85,12.85,12.85,0,0,0,6.25.78l8.2-1.21,2.42,9c-5.95,10.34-24,21.27-35.27,28.53l-19.15,5.56c-11.17,1.54-5.2,15-5.2,15a9,9,0,0,0,11.74,5.4s19.65-3.08,23.81-4.32c9.94-3.35,21.33-10.1,31.39-16.31,6.82-.09,35.55-.55,42.83-1.91,8.29-1.54,14.06-7.7,17.92-10.59s38.51-10.59,42.94-12.32,48.73-7.13,48.73-7.13L347,105.71s-46.53,24.57-52,27.16c-10.59,5-26,5.2-37,2.31-10.46-2.75-43-23.11-56.82-30.24-6.93-3.56-12.52-3.66-17.06-1.24-8.83,4.71-51.37,24.67-51.37,24.67-2.34,1.35-5.7,5.51-6.17,6.17,0,0-14.18,32.42-17.14,40.37L102.15,195a19,19,0,0,1-1.12,3" transform="translate(-6.13 -99.05)"/></svg>