<svg id="grabbing_hand" data-name="grabbing hand" xmlns="http://www.w3.org/2000/svg" viewBox="0 0 338.65 180.8"><defs><style>.cls-1{fill:#fff;stroke-width:3px;}.cls-1,.cls-2{stroke:#231f20;stroke-linecap:round;stroke-linejoin:round;}.cls-2{fill:none;stroke-width:5px;}</style></defs><path class="cls-1" d="M167.33,152a17.55,17.55,0,0,0-19.55-15.19l-39.06,4.91a17.55,17.55,0,0,0-15.27,16,11.67,11.67,0,0,0-12.39,2l-8.7,7.78A11.6,11.6,0,0,0,70,170.59,12.84,12.84,0,0,0,62.84,178l-10,27.25A12.83,12.83,0,1,0,77,214l7.8-21.34a11.55,11.55,0,0,0,7.49-2.89L101,182a11.54,11.54,0,0,0,3.63-6.58,17.33,17.33,0,0,0,8.47,1.05l39.07-4.91A17.55,17.55,0,0,0,167.33,152Z" transform="translate(-8.35 -82.58)"/><path class="cls-1" d="M154.34,134.26a17.56,17.56,0,0,0-19.56-15.19L95.72,124a17.52,17.52,0,0,0-14,10.83,17.5,17.5,0,0,0-15.19,1.08L59,140.24a17.5,17.5,0,0,0-8.45,12.1,12.76,12.76,0,0,0-6.42,7.08l-10,27.24a12.84,12.84,0,1,0,24.11,8.82l8.28-22.63a17.36,17.36,0,0,0,10-2.28L84,166.22a17.42,17.42,0,0,0,7.45-8.61,17.36,17.36,0,0,0,8.63,1.11l39.06-4.91A17.56,17.56,0,0,0,154.34,134.26Z" transform="translate(-8.35 -82.58)"/><path class="cls-1" d="M135.44,233.11s48.87-.52,60.11-2.61,19.07-10.45,24.3-14.37,52.26-14.38,58.27-16.73,66.12-9.67,66.12-9.67l-.53-98.51s-63.14,33.34-70.55,36.84c-14.37,6.8-35.28,7.06-50.17,3.14-14.19-3.74-58.28-31.36-77.09-41-9.41-4.83-17-5-23.15-1.68C110.77,94.87,53,122,53,122c-3.17,1.84-7.73,7.47-8.36,8.37,0,0-19.25,44-23.26,54.77l-10,27.24a12.85,12.85,0,0,0,7.65,16.47c12.08,4.3,30.11-28.89,26.43-34.89,6.81,0,20.66-36.33,20.66-36.33,10.46,4.7,44.08-14.72,40.77-24.3C120.81,142.17,142,121.9,142,121.9h0" transform="translate(-8.35 -82.58)"/><path class="cls-1" d="M142,121.9c-13.65,8.51-21.07,28.76-19.5,46.53s14.73,63.11,14.73,63.11" transform="translate(-8.35 -82.58)"/><path class="cls-1" d="M74,185.55c6.54,5.49,8.89,8.1,13.33,6.8" transform="translate(-8.35 -82.58)"/><path class="cls-1" d="M97.29,166.48c2.88,5,8.1,9.93,9.15,9.93" transform="translate(-8.35 -82.58)"/><path class="cls-1" d="M134.4,177.45c-6.21,15.62-39.52,38.52-54.76,48.38l-26,7.54c-15.16,2.09-7,20.39-7,20.39a12.14,12.14,0,0,0,15.94,7.31s26.65-4.18,32.3-5.85c27.54-9.3,63.32-37.77,75.1-40.14" transform="translate(-8.35 -82.58)"/><path class="cls-1" d="M90.76,152.1a21.49,21.49,0,0,0,.7,5.51" transform="translate(-8.35 -82.58)"/><path class="cls-1" d="M63.58,164.65c-1,2.87-.52,5.48,1.57,7.31" transform="translate(-8.35 -82.58)"/><path class="cls-1" d="M59.66,142.17c-.78,4.71,1.83,13.33,6.53,15.42" transform="translate(-8.35 -82.58)"/><path class="cls-1" d="M102,120.48c-.27,8.1,3.39,10.72,5.74,12.81" transform="translate(-8.35 -82.58)"/><path class="cls-1" d="M34.84,185a70.25,70.25,0,0,0,10.69,8.89" transform="translate(-8.35 -82.58)"/><path class="cls-1" d="M86.05,237.55c.27,7.06,5,17.3,8.79,17.67" transform="translate(-8.35 -82.58)"/><path class="cls-2" d="M16.43,228.25c13.87,6.16,25.66-19.52,28-25.67a12.87,12.87,0,0,0,10.29-2.91l-1.6,4.39a12.84,12.84,0,0,0,24.11,8.82l7.8-21.34.55,0a7.5,7.5,0,0,0,1.38-.16,11.41,11.41,0,0,0,5.56-2.7l8.7-7.77a11.59,11.59,0,0,0,3.63-6.59,2.67,2.67,0,0,0,.4.13,3.32,3.32,0,0,0,1.43.83l-.48-.52a17.12,17.12,0,0,0,7.12.61l10.37-1.3c.7,4.18,1.68,9,2.82,14-12.56,13.75-34.92,29-46.63,36.59l-26,7.55c-15.16,2.09-7.06,20.38-7.06,20.38a12.16,12.16,0,0,0,16,7.32s26.65-4.18,32.3-5.86a135.1,135.1,0,0,0,19.08-8.46" transform="translate(-8.35 -82.58)"/><path class="cls-2" d="M114.19,245.59c8-4.19,16-9,23.51-13.67,9.25-.12,48.23-.75,58.12-2.59,11.23-2.09,19.07-10.45,24.3-14.37s52.26-14.37,58.27-16.72,66.12-9.67,66.12-9.67L344,90.05s-63.14,33.34-70.55,36.85c-14.37,6.79-35.28,7-50.18,3.13C209.07,126.3,165,98.67,146.17,89c-9.41-4.84-17-5-23.15-1.69-12,6.39-69.71,33.48-69.71,33.48-3.17,1.83-7.73,7.47-8.36,8.36,0,0-19.25,44-23.26,54.78l-10,27.24c-.53,1.45-3,12.23,3.83,16.19" transform="translate(-8.35 -82.58)"/><path class="cls-1" d="M67.5,259.5s-4.7-9.93-7-12.8-5.75-3.14-13.07.78c0,0,1.4,12,5.88,13.82S67.5,259.5,67.5,259.5Z" transform="translate(-8.35 -82.58)"/></svg>