<svg id="hand_with_fob" data-name="hand with fob" xmlns="http://www.w3.org/2000/svg" viewBox="0 0 230.71 160.48"><defs><style>.cls-1,.cls-2,.cls-3{fill:#fff;}.cls-1,.cls-2,.cls-3,.cls-4,.cls-5,.cls-6{stroke:#231f20;stroke-linecap:round;stroke-linejoin:round;}.cls-1,.cls-5{stroke-width:2.46px;}.cls-2,.cls-4{stroke-width:1.33px;}.cls-3{stroke-width:2.67px;}.cls-4,.cls-5,.cls-6{fill:none;}.cls-6{stroke-width:4px;}</style></defs><path class="cls-1" d="M240,166.55c-11.9-8.38-44.61-42.72-54.34-45.42a62.32,62.32,0,0,0-16.33-2,38.52,38.52,0,0,0-6.18-.49c-4.78,0-13.94,2.49-13.94,2.49s-7.68,1.62-11.83,4.66c-6.66,4.86-10.16,11.48-7.83,14.79s9.61,2.05,16.26-2.81c1.4-1,7.94,44.33,7.94,44.33s29.47,30,49.48,27c4-.6,7.62-3.37,10.54-6.47l-8.11,5.79,28.12,20.28,41.63,34.87,18.12-66.5S245.35,170.35,240,166.55Z" transform="translate(-66.17 -105.9)"/><path class="cls-2" d="M179.74,182c-5.27,0-16.3-.89-18.31-1.83-5.33-2.52-10.89-1.94-12.42,1.3s2.55,7,7.88,9.52c3.94,1.87,16.91,2.78,22.17,2.78,9.26,0,16.72-1.75,17.1-5.61C196.84,181.28,189,182,179.74,182Z" transform="translate(-66.17 -105.9)"/><path class="cls-3" d="M110.31,112.06s-5.78-3.28-9.17-4.09a27.33,27.33,0,0,0-12.61,53.19c5.56,1.32,16.1-1.09,16.1-1.09l29.55-4.55,3.3-28.72ZM129.83,150s-7,1.28-11,1.7c4-2.77,7.16-21.94,3.19-25.82l10.16,5Z" transform="translate(-66.17 -105.9)"/><path class="cls-2" d="M175.84,168.55c-5.81,0-11,1.23-14.34,3.15a14.83,14.83,0,0,0-5.8-5.79c-5.43-3.14-11.5-2.8-13.55.76s.68,9,6.11,12.12c3.86,2.22,20,4.38,27.42,4.38,10.13,0,16.31-.87,16.36-5.47C192.1,171.48,186,168.55,175.84,168.55Z" transform="translate(-66.17 -105.9)"/><path class="cls-2" d="M159,155.8c-1.24,0-3.85-2.63-5.07-3.85-5.07-5.07-9.44-4.92-12.69-1.67s-1.79,10,3.28,15.07c1.6,1.6,12.88,7.81,18.8,8.77,10,1.62,12.78-2.69,12.78-7.44S166.9,155.8,159,155.8Z" transform="translate(-66.17 -105.9)"/><path class="cls-2" d="M163.09,162.18h7.31a.82.82,0,0,1,.82.82v8.87a2.55,2.55,0,0,1-2.55,2.55h-3.85a2.55,2.55,0,0,1-2.55-2.55V163a.82.82,0,0,1,.82-.82Z" transform="translate(300.84 -64.16) rotate(102.44)"/><path class="cls-2" d="M180.45,172.23h7.31a.82.82,0,0,1,.82.82v8.87a2.55,2.55,0,0,1-2.55,2.55h-3.85a2.55,2.55,0,0,1-2.55-2.55v-8.87A.82.82,0,0,1,180.45,172.23Z" transform="translate(302.6 -105.32) rotate(92)"/><path class="cls-2" d="M186.51,182.4h5.74a.33.33,0,0,1,.33.33v8a1.82,1.82,0,0,1-1.82,1.82H188a1.82,1.82,0,0,1-1.82-1.82v-8a.33.33,0,0,1,.33-.33Z" transform="translate(310.66 -107.82) rotate(90)"/><path class="cls-2" d="M158.31,155.67c-3.24,0-7.3.33-8.45,3.17" transform="translate(-66.17 -105.9)"/><path class="cls-2" d="M145.6,125.59c1,1.42.14,5.61-.13,5.81" transform="translate(-66.17 -105.9)"/><path class="cls-2" d="M165.07,124.64c.67,3.31-1.49,8.45-3.45,8.52" transform="translate(-66.17 -105.9)"/><path class="cls-2" d="M176.56,125.05c-3.25,5.27-4.26,8-3.65,9.33" transform="translate(-66.17 -105.9)"/><path class="cls-2" d="M171.15,126.74c.68,1.75,2.23,7.64,1.69,8" transform="translate(-66.17 -105.9)"/><circle class="cls-4" cx="28.67" cy="28.67" r="22.55"/><ellipse class="cls-5" cx="129.96" cy="141.08" rx="6.73" ry="7.88" transform="translate(-103.47 129.08) rotate(-76.66)"/><rect class="cls-4" x="85.18" y="120.2" width="17.32" height="29.37" rx="0.83" transform="translate(-47.36 -117.19) rotate(7.65)"/><path class="cls-2" d="M183.32,135.46c-11.63-3.2-20.68-2.32-32-3.32-10.39-.91-16.3-1.89-17.91-2-8.18-.51-13.14-.72-14.3,6.19-1.32,7.84,7.93,11.25,16.12,11.76a109.16,109.16,0,0,1,19.94,2.83c12.38,3,24.4,10.14,32.85,4.94" transform="translate(-66.17 -105.9)"/><path class="cls-4" d="M123.92,132.11H134.2a1,1,0,0,1,1,1V143.4a3,3,0,0,1-3,3h-6.24a3,3,0,0,1-3-3V133.07a1,1,0,0,1,1-1Z" transform="translate(-93.37 141.18) rotate(-81.78)"/><path class="cls-2" d="M146.82,131.33c1.55,4.4,1.49,10.82-.34,12.24" transform="translate(-66.17 -105.9)"/><path class="cls-2" d="M151,132.35c1.15,2,2.1,7.84.07,11" transform="translate(-66.17 -105.9)"/><path class="cls-2" d="M190.62,161.28c1.42,7.29,3.65,24.94,11.76,28.18" transform="translate(-66.17 -105.9)"/><path class="cls-6" d="M241.34,167.31c-11.89-8.38-44.61-42.71-54.34-45.42a62.19,62.19,0,0,0-16.33-2,37.28,37.28,0,0,0-6.18-.5c-4.77,0-13.93,2.5-13.93,2.5s-7.68,1.62-11.84,4.65a28.78,28.78,0,0,0-4.72,4.33c-7.68-.46-12.35-.44-13.47,6.23-1.32,7.84,7.92,11.26,16.12,11.76,1.43.09,4.24.24,7.94.69a8.62,8.62,0,0,0-2,1.5c-3.14,3.14-1.86,9.54,2.79,14.54a5.1,5.1,0,0,0-1.87,1.85c-2.05,3.55.69,9,6.12,12.11a12.5,12.5,0,0,0,2.35.94,4.34,4.34,0,0,0-1.61,1.77c-1.53,3.24,2.55,7,7.89,9.52,1.74.82,5.24,1.46,9.05,1.91,10.4,8.27,25.46,18,37.24,16.2a11.77,11.77,0,0,0,2.46-.66l28.09,20.27,41.64,34.87,18.11-66.51S246.74,171.12,241.34,167.31Z" transform="translate(-66.17 -105.9)"/></svg>