<svg id="hand_with_key" data-name="hand with key" xmlns="http://www.w3.org/2000/svg" viewBox="0 0 240.04 139.86"><defs><style>.cls-1,.cls-2{fill:#fff;}.cls-1,.cls-2,.cls-3,.cls-4,.cls-5{stroke:#231f20;stroke-linecap:round;stroke-linejoin:round;}.cls-1,.cls-4{stroke-width:2.49px;}.cls-2,.cls-3{stroke-width:1.25px;}.cls-3,.cls-4,.cls-5{fill:none;}.cls-5{stroke-width:3.74px;}</style></defs><polygon class="cls-1" points="1.25 20.43 3.36 24.29 7.4 24.29 9.51 21.48 13.73 21.48 16.8 24.56 19.79 21.57 27.26 21.57 29.86 24.16 32.63 21.39 37.64 21.39 38.69 24.82 43.96 24.82 45.72 21.48 50.29 21.48 60.49 21.66 62.25 25.7 70.16 25.7 71.04 16.73 1.42 16.56 1.25 20.43"/><path class="cls-1" d="M1.9,12.16H77.72a0,0,0,0,1,0,0v4.69a0,0,0,0,1,0,0H1.25a0,0,0,0,1,0,0v-4A.66.66,0,0,1,1.9,12.16Z"/><path class="cls-1" d="M254.26,168.54c-11.1-7.83-41.64-39.88-50.73-42.4a58.33,58.33,0,0,0-15.25-1.88,35.67,35.67,0,0,0-5.76-.46c-4.46,0-13,2.33-13,2.33s-7.17,1.51-11,4.35c-6.21,4.54-9.49,10.72-7.31,13.81s9,1.91,15.18-2.62c1.31-1,7.42,41.38,7.42,41.38s27.51,28,46.19,25.24c3.72-.55,7.11-3.14,9.83-6l-7.56,5.4,26.25,18.93,38.87,32.56,16.91-62.09S259.3,172.09,254.26,168.54Z" transform="translate(-65.68 -121.76)"/><path class="cls-2" d="M198,183c-4.91,0-15.21-.83-17.09-1.72-5-2.35-10.17-1.8-11.6,1.22s2.38,6.54,7.36,8.89c3.68,1.74,15.79,2.59,20.7,2.59,8.64,0,15.61-1.63,16-5.24C214,182.3,206.68,183,198,183Z" transform="translate(-65.68 -121.76)"/><path class="cls-2" d="M194.4,170.41c-5.42,0-10.25,1.15-13.38,2.94a14,14,0,0,0-5.42-5.41c-5.07-2.92-10.73-2.61-12.65.71s.64,8.39,5.71,11.32c3.6,2.07,18.64,4.09,25.59,4.09,9.46,0,15.23-.82,15.28-5.11C209.59,173.15,203.86,170.41,194.4,170.41Z" transform="translate(-65.68 -121.76)"/><path class="cls-2" d="M178.67,158.51c-1.16,0-3.59-2.46-4.73-3.6-4.73-4.73-8.81-4.59-11.85-1.55s-1.66,9.33,3.07,14.06c1.49,1.5,12,7.29,17.55,8.19,9.34,1.51,11.92-2.51,11.92-6.94S186.06,158.51,178.67,158.51Z" transform="translate(-65.68 -121.76)"/><path class="cls-2" d="M182.55,164.46h6.71a.82.82,0,0,1,.82.82v8.05a2.55,2.55,0,0,1-2.55,2.55h-3.25a2.55,2.55,0,0,1-2.55-2.55v-8.05a.82.82,0,0,1,.82-.82Z" transform="translate(326.46 -96.46) rotate(102.44)"/><path class="cls-2" d="M198.76,173.85h6.71a.82.82,0,0,1,.82.82v8.05a2.55,2.55,0,0,1-2.55,2.55h-3.25a2.55,2.55,0,0,1-2.55-2.55v-8.05a.82.82,0,0,1,.82-.82Z" transform="translate(322.93 -137.94) rotate(92)"/><path class="cls-2" d="M204.39,183.34h5.31a.33.33,0,0,1,.33.33V191a1.82,1.82,0,0,1-1.82,1.82h-2.32a1.82,1.82,0,0,1-1.82-1.82v-7.29A.33.33,0,0,1,204.39,183.34Z" transform="translate(329.42 -140.74) rotate(90)"/><path class="cls-3" d="M178,158.38c-3,0-6.82.32-7.89,3" transform="translate(-65.68 -121.76)"/><path class="cls-4" d="M166.18,130.3c.88,1.33.12,5.24-.13,5.43" transform="translate(-65.68 -121.76)"/><path class="cls-3" d="M184.35,129.42c.63,3.09-1.39,7.88-3.22,8" transform="translate(-65.68 -121.76)"/><path class="cls-3" d="M195.08,129.8c-3,4.92-4,7.44-3.41,8.7" transform="translate(-65.68 -121.76)"/><path class="cls-3" d="M190,131.37c.63,1.64,2.08,7.13,1.57,7.51" transform="translate(-65.68 -121.76)"/><rect class="cls-1" x="67.06" y="1.25" width="37.33" height="36.01" rx="0.69"/><path class="cls-2" d="M201.39,139.51c-10.86-3-19.31-2.16-29.85-3.09-9.7-.85-15.22-1.77-16.72-1.86-7.64-.47-12.26-.68-13.35,5.77-1.23,7.32,7.4,10.51,15.05,11A103.13,103.13,0,0,1,175.14,154c11.55,2.8,22.77,9.47,30.66,4.61" transform="translate(-65.68 -121.76)"/><path class="cls-3" d="M146,135.72h7.85a1,1,0,0,1,1,1v7.48a3,3,0,0,1-3,3h-3.8a3,3,0,0,1-3-3v-7.48a1,1,0,0,1,1-1Z" transform="translate(-77.13 147.89) rotate(-81.78)"/><path class="cls-3" d="M167.12,136.42c1.45,4.1,1.39,10.1-.31,11.42" transform="translate(-65.68 -121.76)"/><path class="cls-3" d="M171.22,136.61c1.08,1.83,2,7.32.07,10.29" transform="translate(-65.68 -121.76)"/><path class="cls-2" d="M208.38,162.8c1.32,6.81,3.41,23.28,11,26.31" transform="translate(-65.68 -121.76)"/><path class="cls-5" d="M170.49,125.28l-.41,9.8s-10-.54-16.74-.82-11.21.45-12.26,6.68c-1.23,7.32,7.4,10.5,15,11,1.34.09,14.22.46,14.22.46l-.34,6.86-9.53.13s1.11,5.25,3.82,8.17a4.81,4.81,0,0,0-1.74,1.73c-1.91,3.32.64,8.38,5.71,11.31a11.66,11.66,0,0,0,2.19.87A4.1,4.1,0,0,0,169,183.1c-1.43,3,2.38,6.53,7.36,8.88,1.62.77,4.89,1.36,8.45,1.79,9.7,7.71,23.77,16.76,34.77,15.12a10.92,10.92,0,0,0,2.29-.61l26.23,18.91,38.87,32.56,16.91-62.09s-44.94-25-50-28.52c-11.11-7.82-41.65-39.88-50.74-42.4a57.8,57.8,0,0,0-15.24-1.87,34.74,34.74,0,0,0-5.77-.47c-3.41,0-7.86,0-10.41.67" transform="translate(-65.68 -121.76)"/></svg>