<svg id="handle" xmlns="http://www.w3.org/2000/svg" viewBox="0 0 309.41 188.78"><defs><style>.cls-1{fill:#fff;}.cls-1,.cls-2,.cls-3{stroke:#231f20;stroke-linecap:round;stroke-linejoin:round;}.cls-1,.cls-2{stroke-width:3px;}.cls-2,.cls-3{fill:none;}.cls-3{stroke-width:6px;}</style></defs><path class="cls-1" d="M337.64,247.58c-5.7,8.18-17.47,14.8-45.78,3.17L127.25,187l-9.46-3.68a7.51,7.51,0,0,1-.92-.5,94.62,94.62,0,0,1-19.26-14.48c-9.43-9.1-17.1-19.95-17.1-29,0-.32,0-.6,0-.92a18.74,18.74,0,0,1,37.47,0,19.88,19.88,0,0,1-.74,5.29c1.38,4.73,3.72,8.09,6.85,10.25a16,16,0,0,0,4.14,2.07l13.79,5.24,7.07,2.71L302.7,222.53c4.19,1.88,5-.42,5-.42,2.25-9.47,9.42-14.66,19.86-11.26C342.19,215.68,343.71,238.84,337.64,247.58Z" transform="translate(-34.33 -71.89)"/><path class="cls-2" d="M94.25,74.24A56.69,56.69,0,0,0,49,165a56.68,56.68,0,0,1,95.1-61.13A56.71,56.71,0,0,0,94.25,74.24Zm3.54,31.35a31.4,31.4,0,0,0-.18,62.79c-9.43-9.1-17.1-19.95-17.1-29,0-.32,0-.6,0-.92a18.74,18.74,0,0,1,37.47,0,19.88,19.88,0,0,1-.74,5.29c1.38,4.73,3.72,8.09,6.85,10.25a31.43,31.43,0,0,0-26.34-48.45Z" transform="translate(-34.33 -71.89)"/><path class="cls-2" d="M97.79,105.59a31.4,31.4,0,0,0-.18,62.79c-9.43-9.1-17.1-19.95-17.1-29,0-.32,0-.6,0-.92a18.74,18.74,0,0,1,37.47,0,19.88,19.88,0,0,1-.74,5.29c1.38,4.73,3.72,8.09,6.85,10.25a31.43,31.43,0,0,0-26.34-48.45Z" transform="translate(-34.33 -71.89)"/><path class="cls-1" d="M123.77,186.45c-8.36,4.83-18.69,6.26-29,6.26-21.51,0-36.16-10-45.76-27.69a56.68,56.68,0,0,1,95.1-61.13,56.69,56.69,0,0,1-2,57.46l-13.79-5.24a16,16,0,0,1-4.14-2.07,31.38,31.38,0,1,0-26.52,14.34c6.2,6,20.1,14.76,26.16,18.07" transform="translate(-34.33 -71.89)"/><path class="cls-1" d="M97.79,105.59a31.4,31.4,0,0,0-.18,62.79c-9.43-9.1-17.1-19.95-17.1-29,0-.32,0-.6,0-.92a18.74,18.74,0,0,1,37.47,0,19.88,19.88,0,0,1-.74,5.29c1.38,4.73,3.72,8.09,6.85,10.25a31.43,31.43,0,0,0-26.34-48.45Z" transform="translate(-34.33 -71.89)"/><path class="cls-2" d="M108.4,137.49c1.14,3.8,9.11,13.67,13.67,15.94" transform="translate(-34.33 -71.89)"/><path class="cls-2" d="M307.84,225.86s7.78,3.23,11.38,1.9" transform="translate(-34.33 -71.89)"/><path class="cls-3" d="M327.27,211.5c-10.43-3.4-17.6,1.8-19.85,11.26,0,0-.78,2.3-5,.42L148.88,164.71,141.81,162a56.67,56.67,0,1,0-93.08,3.68c9.6,17.65,24.25,27.69,45.76,27.69,10.34,0,20.67-1.44,29-6.27-1.12-.61-2.51-1.4-4.06-2.34l7.54,2.93L291.61,251.4c28.31,11.63,40.08,5,45.78-3.17C343.45,239.5,341.94,216.33,327.27,211.5Z" transform="translate(-34.33 -71.89)"/></svg>