<svg id="man_outline" data-name="man outline" xmlns="http://www.w3.org/2000/svg" viewBox="0 0 53.07 267.46"><defs><style>.cls-1,.cls-2{fill:#fff;}.cls-1,.cls-2,.cls-3{stroke:#231f20;stroke-linecap:round;stroke-linejoin:round;}.cls-2{stroke-width:2px;}.cls-3{fill:none;stroke-width:4px;}</style></defs><ellipse class="cls-1" cx="31.34" cy="253.37" rx="19.31" ry="6.74"/><path class="cls-1" d="M172.84,98.24c-1.47,8.56-5.32,11,2.73,12.34,11.37,1.92,6.7-3.61,6.92-11,.15-5.09,12.3-17-2.07-19.34C166.63,78,173.65,93.52,172.84,98.24Z" transform="translate(-158.72 -56.91)"/><path class="cls-2" d="M164.05,178.81a14.05,14.05,0,0,1-2.15-8.18v-48.9c0-9.36,7.67-22.3,14.87-22.54s16.54,11.75,19.17,22.54,0,48.9,0,48.9a11.52,11.52,0,0,1-3.86,9.07,8.15,8.15,0,0,1,1.1,4.77l-1.55,70.31c0,8-6.47,56.1-6.47,56.1l-13.43,5s-7.08-54-4.07-62.81c2-6-1-36.34-1.33-41.3s-5.16-11.34-5.75-23.74C160.31,182.47,161.59,180,164.05,178.81Z" transform="translate(-158.72 -56.91)"/><ellipse class="cls-2" cx="21.48" cy="22.85" rx="13.36" ry="17.52"/><path class="cls-2" d="M176,109.57a8,8,0,0,1,9.22,6.53L186.88,149c.19,1.11.42,2.3.58,3.48l16.72,21.95c2.61,2.83,6.23,6.4,4,8.45s-6.19,1.43-8.8-1.4L178.63,159a8.58,8.58,0,0,1-1.21-1.73,7.91,7.91,0,0,1-2-4.06l-5.9-34.43A8,8,0,0,1,176,109.57Z" transform="translate(-158.72 -56.91)"/><ellipse class="cls-2" cx="31" cy="258.52" rx="19.9" ry="6.95"/><path class="cls-2" d="M178.36,74.13c-2.92-.57-6.61,1.11-4.17,7.38-1.94,3.27-6.95,8.34-7.45,7.47s-4.92-15.07-3.17-20.77c2.16-7.06,7.52-9,10-9.23,4.51-.35,14.1.8,19,4.07,2.53,1.69-.51,6-2.64,6s-7.45.12-8.49,1A31.4,31.4,0,0,0,178.36,74.13Z" transform="translate(-158.72 -56.91)"/><path class="cls-2" d="M192.08,179.7c-2.49.21-22.88,1.25-28-.89" transform="translate(-158.72 -56.91)"/><path class="cls-3" d="M164.22,178.8a14.05,14.05,0,0,1-2.15-8.18v-48.9c0-7.41,4.81-17,10.38-20.85.2-.81.4-1.68.56-2.64a14.71,14.71,0,0,0-.25-4.1,16.92,16.92,0,0,1-4.12-6c-.89.74-1.56,1.12-1.73.83-.49-.87-4.92-15.07-3.17-20.78,2.16-7,7.52-9,10-9.22,4.51-.35,14.09.8,19,4.07,2.25,1.5.09,5.08-1.92,5.88a21.09,21.09,0,0,1,2.87,10.83c0,8.28-4.38,15.2-10.27,17a7.84,7.84,0,0,0-.79,2.78c0,.54,0,1.07,0,1.59,5.75,3.81,11.46,12.52,13.43,20.57s1,31.17.38,42.49l7.57,9.93c2.61,2.83,6.23,6.4,4,8.46s-6.19,1.42-8.8-1.41l-4.46-4.82a10.9,10.9,0,0,1-2.56,3.31,8.28,8.28,0,0,1,1.09,4.77l-1.55,70.32c0,6.13-3.76,35.51-5.55,49.13,1.07-.07,2.16-.11,3.27-.11,11,0,19.9,3.12,19.9,6.95a3.2,3.2,0,0,1-1,2.17,3.46,3.46,0,0,1,1.36,2.51c0,3.84-8.91,6.95-19.9,6.95S170,319.26,170,315.42a3.21,3.21,0,0,1,1-2.17,3,3,0,0,1,0-5c-1.82-15.21-5.43-48.43-3.13-55.17,2-6-1-36.34-1.33-41.31s-5.16-11.33-5.75-23.73C160.48,182.46,161.76,179.94,164.22,178.8Z" transform="translate(-158.72 -56.91)"/></svg>