<svg id="paper_towel" data-name="paper towel" xmlns="http://www.w3.org/2000/svg" viewBox="0 0 144.18 324.34"><defs><style>.cls-1,.cls-3{fill:none;}.cls-1,.cls-2,.cls-3{stroke:#231f20;stroke-linecap:round;stroke-linejoin:round;}.cls-1,.cls-2{stroke-width:3.89px;}.cls-2{fill:#fff;}.cls-3{stroke-width:7.27px;}</style></defs><path class="cls-1" d="M251.1,314.05l-.19-253.68-134.84-.11.19,254.88a9.4,9.4,0,0,0,0,2.29v.68h.1c2.39,13.75,31.64,24.63,67.4,24.66,37.34,0,67.61-11.78,67.62-26.38A10.26,10.26,0,0,0,251.1,314.05Z" transform="translate(-112.34 -27.24)"/><ellipse class="cls-2" cx="71.33" cy="30.04" rx="66.88" ry="26.43"/><ellipse class="cls-2" cx="71.23" cy="28.68" rx="18.59" ry="7.7"/><path class="cls-2" d="M235.26,341.93c-10.12-28.5,6.62-237,5.19-237.32-.58-.14-20.85-15.12-20.85-15.12S199,86.83,170,83.34c-48.18-5.79-49.25-18.37-53.2-26.11s-2,253-.53,264.83S194.26,359.52,235.26,341.93Z" transform="translate(-112.34 -27.24)"/><path class="cls-1" d="M239.73,106.41c-15.11,3.58-18,5-18,5,2.17-19.06-2.14-21.94-2.14-21.94" transform="translate(-112.34 -27.24)"/><path class="cls-3" d="M252.88,316.41a10.32,10.32,0,0,0-.28-2.34l-.19-253.68h-.81a10.85,10.85,0,0,0,.45-3c0-14.6-29.92-26.45-66.86-26.48s-66.89,11.78-66.9,26.37c-4-7.73-2,253-.53,264.83s78,37.46,119,19.87a41,41,0,0,1-1.67-7.69C246.13,329.57,252.88,323.3,252.88,316.41Z" transform="translate(-112.34 -27.24)"/></svg>