<svg id="airplane" xmlns="http://www.w3.org/2000/svg" viewBox="0 0 284.67 276.09"><defs><style>.cls-1{fill:#fff;stroke:#231f20;stroke-linejoin:round;stroke-width:6px;}</style></defs><path class="cls-1" d="M302.47,224.78c5.58-7.74,6.42-16.66,1.89-19.94-4.06-2.92-11-.31-16.45,5.8l-13.24-31.38a26,26,0,0,0,6.94-6.69c5.57-7.74,6.32-16.73,1.67-20.08-4.31-3.11-11.72-.23-17.22,6.35l-10.35-24.52h0c23.51-24.7,41.39-44.77,49.89-52.77,32.62-30.7,10.56-60.44-35.49-24-12.85,10.16-30,25.34-48.26,42.68L200.6,91.5c4.49-8.14,4.06-17-1.07-20S186.2,72.78,181.43,81c-.4.7-.72,1.41-1.05,2.12l-32.54-13.4c4.54-8.16,4.13-17.05-1-20s-13.31,1.24-18.08,9.5c-.42.73-.75,1.47-1.09,2.21,0,0-38.41-18.28-47-15.88S66,56,68.52,63.75s110.92,83,110.92,83C153,175,128,201.09,119.18,219.51c0,0-58.12-9.82-63.21-6.73s-13.5,21.06-13.5,21.06L98.3,253.22,87.82,270.07l17.65-11.23,17.85,52s18.23-7.68,21.1-13.44-6-58-6-58c18.33-9.23,45.35-33.18,72.56-59.88,0,0,76.84,106.39,83.08,109.27s16.31-4.8,18.23-12.95-15.89-45-15.89-45A26.76,26.76,0,0,0,302.47,224.78Z" transform="translate(-39.47 -37.76)"/></svg>