<svg id="finger" xmlns="http://www.w3.org/2000/svg" viewBox="0 0 292.74 166.5"><defs><style>.cls-1{fill:#fff;stroke-width:3px;}.cls-1,.cls-2{stroke:#231f20;stroke-linecap:round;stroke-linejoin:round;}.cls-2{fill:none;stroke-width:6px;}</style></defs><path class="cls-1" d="M121.56,119.09c2-6.43,8.09-6.67,21.33-2.51,3.49,1.1,10.86,3.51,15.65,3.87,14.23.15,40.61,16.71,44.66,19.24l.16.08h0l.11.07C216.43,147.23,254,188,265,192.66c12.18,5.12,52.71,6.8,52.71,6.8s1.84,75.06-2.85,74.61-22.21-12.82-33.46-10.56-101.55,7.06-133-14.72c-8-5.57-13.37-82.33-11.75-86.69,1.41-3.78-4.44-14.58,8-18.45l-2.76-5.39C128.64,134.1,119.54,125.51,121.56,119.09Z" transform="translate(-27.85 -111.22)"/><path class="cls-1" d="M150,167.85c-18.87,1.12-63.46-9-70-9.74-7.15-.86-25.24-3.4-30.06-4.16C39.47,152.28,30,152.68,31.49,141c1.19-9.38,9.36-8.24,20-8.29,9.26,0,24.77.38,29.4.42,10,.07,108.25,8.11,115.43,13.06" transform="translate(-27.85 -111.22)"/><path class="cls-1" d="M150,167.85l-42.65,0c-6.85-.41-12.72,3-13.09,9.35L94,181.9c-.37,6.32,5.64,11.12,12.5,11.52l43.14,2.65" transform="translate(-27.85 -111.22)"/><path class="cls-1" d="M151.67,196.14H108.73c-6.63-.23-11.46,3.86-11.68,10.48L97,208.3c-.23,6.63,5.5,10.57,12.13,10.8l43.37,4.72" transform="translate(-27.85 -111.22)"/><path class="cls-1" d="M154,223l-35-1.2c-5.25-.18-11,3-11.21,9.62h0c-.23,6.62,4.9,11.34,11.43,13.62l29.15,3.76" transform="translate(-27.85 -111.22)"/><path class="cls-1" d="M46.91,131.5h6.65a4.26,4.26,0,0,1,4.26,4.26v16.73a1.37,1.37,0,0,1-1.37,1.37H44a1.37,1.37,0,0,1-1.37-1.37V135.76a4.26,4.26,0,0,1,4.26-4.26Z" transform="matrix(-0.07, 1, -1, -0.07, 168.36, -8.2)"/><path class="cls-1" d="M147.65,118.66c3.51,1.45,1.9,7.51-.3,8.61s-23.27-7.46-25-9.09S122.9,108.4,147.65,118.66Z" transform="translate(-27.85 -111.22)"/><path class="cls-2" d="M317.24,200.11s-40.53-1.68-52.71-6.8c-11.07-4.66-48.59-45.43-61.52-52.82l-.1-.07h0l-.15-.08c-4.06-2.54-30.44-19.1-44.66-19.24-4.8-.36-12.17-2.77-15.66-3.87-2.46-.78-4.67-1.4-6.66-1.86-12.86-3.27-15,1.25-14.14,3a9.66,9.66,0,0,0-.52,1.31c-2,6.29,6.7,14.64,19.49,18.89-27.16-2.7-55.09-4.8-60.18-4.84-4.63,0-20.14-.45-29.39-.41-10.64,0-18.81-1.1-20,8.28-1.48,11.67,8,11.27,18.48,12.94,4.81.77,22.9,3.3,30.05,4.16,5.23.63,35,7.26,56.34,9.26,0,.16,14.1-.33,14.11-.16l-43.14.66c-6.85-.41-12.71,3-13.09,9.35l-.27,4.68c-.38,6.32,5.63,11.12,12.49,11.53l43.63,2c0,.26-12.07.46-12.05.72H108.24c-6.63-.23-11.46,3.86-11.68,10.48L96.5,209c-.23,6.62,5.51,10.57,12.13,10.8l40.92,3.11-31-.42c-5.24-.18-11,3-11.21,9.61s4.91,11.35,11.43,13.63l29.15,3.75c31.47,21.79,121.77,17,133,14.73s28.78,10.1,33.47,10.55S317.24,200.11,317.24,200.11Z" transform="translate(-27.85 -111.22)"/></svg>