<svg xmlns="http://www.w3.org/2000/svg" viewBox="0 0 164.98 338.78"><defs><style>.cls-1,.cls-2,.cls-4{fill:#fff;}.cls-1,.cls-2,.cls-3,.cls-4{stroke:#231f20;stroke-linecap:round;stroke-linejoin:round;}.cls-1{stroke-width:6px;}.cls-2{stroke-width:2.85px;}.cls-3{fill:none;stroke-width:3.02px;}.cls-4{stroke-width:3px;}</style></defs><g id="sanitiser"><path class="cls-1" d="M209.12,11.93h-7c-1.92-.19-3.85-.29-5.81-.29H158.6q-2.94,0-5.81.29h-7A48,48,0,0,0,98,59.76V188.94a48,48,0,0,0,47.84,47.83h7.32v17.37h12.58v9.71H194v-9.71h13.8V236.77h1.29A48,48,0,0,0,257,188.94V59.76A48,48,0,0,0,209.12,11.93Z" transform="translate(-94.98 -8.6)"/><rect class="cls-2" x="71.05" y="243.97" width="28.31" height="12.86"/><path class="cls-3" d="M222.7,124.59c0-39.68,16.7-72.26,34.22-73.92-2.74-27.39-26-41.77-59.58-40.48h-37.6C124,8.9,107.1,26.3,98.63,50c17.52,1.66,35.74,34.92,35.74,74.6s-17.53,73-35.05,74.68C107.78,223,133.68,239,159.74,239h37.6c26,0,51.8-17.41,60.27-41.09C240.09,196.24,222.7,164.26,222.7,124.59Z" transform="translate(-94.98 -8.6)"/><rect class="cls-4" x="54.27" y="79.4" width="56.43" height="37.94" rx="6.2"/></g><g id="drip"><path class="cls-1" d="M193.87,329.87a16.49,16.49,0,0,1-32.75-4c1.09-9,15.28-16.37,16.14-31.15C184.74,300,195,320.82,193.87,329.87Z" transform="translate(-94.98 -8.6)"/></g></svg>