<svg xmlns="http://www.w3.org/2000/svg" viewBox="0 0 338.02 338.02"><defs><style>.cls-1{fill:#fff;}.cls-1,.cls-2,.cls-3{stroke:#231f20;stroke-linecap:round;stroke-linejoin:round;}.cls-1,.cls-2{stroke-width:3px;}.cls-2,.cls-3{fill:none;}.cls-3{stroke-width:6px;}</style></defs><g id="coughing"><path class="cls-1" d="M256.92,325.68l-.56-104.57,18.77,32.49a18,18,0,0,0,24.57,6.59h0a18.05,18.05,0,0,0,6.58-24.58l-50.74-87.89A18,18,0,0,0,231,141.14c-2.25,1.3-4.09,3-8,6.86l-7.18-4.31L152.07,143c-9.88,3.29-6.17,1.6-13.83,5.84-3.89-7.17-17.94-6.52-24.93,5.09l-55.9,84.59a18,18,0,1,0,30,19.83l26.78-40.52-11.83,34,2.15,74.72" transform="translate(-10.99 -10.99)"/><rect class="cls-1" x="113.35" y="140.8" width="42.8" height="172.41" rx="5.15" transform="translate(-46.26 417.97) rotate(-109.21)"/><rect class="cls-1" x="226.43" y="125.74" width="42.8" height="167.27" rx="5.15" transform="translate(-86.45 225.58) rotate(-45)"/><path class="cls-1" d="M232.22,96.56c0,31.93-22.92,68.41-51.2,68.41s-51.19-36.48-51.19-68.41S145.71,37.86,181,38.74C219,39.69,232.22,64.63,232.22,96.56Z" transform="translate(-10.99 -10.99)"/><ellipse class="cls-2" cx="171.71" cy="124.28" rx="14.49" ry="17.61"/><path class="cls-1" d="M252.87,47.51c4.08-2.74,8.81-2.84,10.56-.24s-.14,6.95-4.23,9.69-16.57,4.26-16.57,4.26S248.78,50.25,252.87,47.51Z" transform="translate(-10.99 -10.99)"/><path class="cls-1" d="M258.86,68.5c3.17.21,5.62,2,5.49,4s-2.8,3.49-6,3.28-10.14-4.33-10.14-4.33S255.7,68.29,258.86,68.5Z" transform="translate(-10.99 -10.99)"/><path class="cls-2" d="M244,116.31c17.21,5.12,39.93-.79,47.91-5.58,4.65-2.79,2.79-19.54-10.23-15.82-10.2,2.92-3.26,14.89-3.26,14.89" transform="translate(-10.99 -10.99)"/><path class="cls-2" d="M240.76,126.49c16.23-.82,56.28,7.41,64.58,11.61,4.84,2.45,4.18,19.29-9.07,16.51C285.88,152.43,292,140,292,140" transform="translate(-10.99 -10.99)"/><path class="cls-2" d="M283.38,122.61c15.41,4,26.17,3.54,32.88-1.45,7-5.23,4.45-19-7.16-15.35-10.71,3.38-.94,10.84-.94,10.84" transform="translate(-10.99 -10.99)"/><path class="cls-1" d="M111.77,138.94c-4.09,2.74-8.82,2.85-10.57.24s.15-7,4.23-9.69S122,125.23,122,125.23,115.85,136.2,111.77,138.94Z" transform="translate(-10.99 -10.99)"/><path class="cls-1" d="M105.77,118c-3.16-.2-5.62-2-5.49-4s2.8-3.49,6-3.28S116.38,115,116.38,115,108.93,118.16,105.77,118Z" transform="translate(-10.99 -10.99)"/></g><g id="circle"><circle class="cls-3" cx="169.01" cy="169.01" r="166.01"/></g></svg>