<svg id="hand" xmlns="http://www.w3.org/2000/svg" viewBox="0 0 231.76 322.56"><defs><style>.cls-1{fill:#fff;stroke:#231f20;stroke-linecap:round;stroke-linejoin:round;stroke-width:6px;}</style></defs><path class="cls-1" d="M121,55l2.63,146.85L85.08,160.7a19,19,0,1,0-27.83,26s65.17,81.35,89.61,124.81S246,346.41,268.6,305.4c9.85-17.83,9.38-47.19,9.25-54.43l-2.64-147a19,19,0,1,0-38.08.69l1.57,87.55h-.37L236,61.09a19.11,19.11,0,0,0-19.38-18.7h0a19.11,19.11,0,0,0-18.7,19.39l2.33,129.38H200c0-.54.07-1.09.06-1.64l-2.64-147a19,19,0,0,0-38.08.68l2.63,147c0,.23,0,.45.05.68l-.53.15L159,54.36a19.1,19.1,0,0,0-19.38-18.7h0A19.1,19.1,0,0,0,121,55Z" transform="translate(-49.14 -20.81)"/></svg>