<svg id="man" xmlns="http://www.w3.org/2000/svg" viewBox="0 0 84.76 277.22"><defs><style>.cls-1{fill:#231f20;}</style></defs><rect class="cls-1" x="16.47" y="168.66" width="25.29" height="102.21"/><rect class="cls-1" x="45.35" y="168.66" width="25.03" height="102.21"/><rect class="cls-1" x="13.92" y="67.17" width="58.8" height="92.95" rx="7.19"/><rect class="cls-1" x="16.34" y="149.12" width="53.97" height="25.12" rx="1.21"/><path class="cls-1" d="M65.2,67.62H78.92a5.77,5.77,0,0,1,5.77,5.77v59A1.58,1.58,0,0,1,83.1,134H65.2a1.58,1.58,0,0,1-1.58-1.58V69.2a1.58,1.58,0,0,1,1.58-1.58Z"/><path class="cls-1" d="M202.39,186.31l1.1,1.79a6.82,6.82,0,0,1,3.43-8.82l12.23-7a6.52,6.52,0,0,1,8.51,3.53h0a6.5,6.5,0,0,1-3.52,8.5l-13.24,5.49A6.51,6.51,0,0,1,202.39,186.31Z" transform="translate(-143.4 -47.27)"/><path class="cls-1" d="M145,115.41h17.91a1.58,1.58,0,0,1,1.58,1.58v59a5.77,5.77,0,0,1-5.77,5.77H145a1.58,1.58,0,0,1-1.58-1.58V117a1.58,1.58,0,0,1,1.58-1.58Z" transform="translate(164.47 249.93) rotate(-180)"/><path class="cls-1" d="M169.65,186.83l-1.1,1.79a6.82,6.82,0,0,0-3.44-8.81l-12.22-7a6.51,6.51,0,0,0-8.51,3.52h0a6.51,6.51,0,0,0,3.52,8.51l13.24,5.49A6.52,6.52,0,0,0,169.65,186.83Z" transform="translate(-143.4 -47.27)"/><ellipse class="cls-1" cx="43.32" cy="31.88" rx="22.98" ry="31.88"/><path class="cls-1" d="M192.19,111.86c.22,9.67,4.06,13-5,13.16-12.86.25-6.79-5.08-5.82-13.29.66-5.64-10.79-20.74,5.45-21C202.37,90.48,192.07,106.52,192.19,111.86Z" transform="translate(-143.4 -47.27)"/><ellipse class="cls-1" cx="33.43" cy="269.11" rx="16.73" ry="8.11"/><ellipse class="cls-1" cx="63.84" cy="268.28" rx="16.73" ry="8.11"/></svg>