<svg xmlns="http://www.w3.org/2000/svg" viewBox="0 0 343.46 343.46"><defs><style>.cls-1,.cls-3{fill:none;stroke:#231f20;}.cls-1{stroke-linecap:round;stroke-linejoin:round;stroke-width:3px;}.cls-2{fill:#ed1c24;}.cls-3{stroke-miterlimit:10;stroke-width:6px;}</style></defs><g id="person"><path class="cls-1" d="M241.76,118.36c0,38.9-27.92,83.33-62.36,83.33S117,157.26,117,118.36s19.35-71.51,62.37-70.43C225.62,49.08,241.76,79.46,241.76,118.36Z" transform="translate(-8.27 -8.27)"/><path class="cls-1" d="M145,187.71c0,17.21,2.95,41.26-17.21,51.62C106.6,250.21,70,244.92,47.06,269.82" transform="translate(-8.27 -8.27)"/><path class="cls-1" d="M213.2,187.15c0,17.2-3,41.25,17.2,51.61,21.42,11,58.63,5.47,81.48,31.33" transform="translate(-8.27 -8.27)"/></g><g id="red_symbols" data-name="red symbols"><polygon class="cls-2" points="170.79 206.73 178.06 197.39 177.62 209.22 189.19 206.73 181.25 215.51 191.72 221.05 179.99 222.67 184.45 233.64 174.42 227.34 170.79 238.61 167.15 227.34 157.12 233.64 161.58 222.67 149.85 221.05 160.32 215.51 152.38 206.73 163.96 209.22 163.52 197.39 170.79 206.73"/><polygon class="cls-2" points="265.17 231.91 238.23 225.54 233.96 224.53 234.49 221.17 236.35 209.35 239.4 212.31 214.83 211.2 239 206.63 241.78 206.11 242.04 209.59 242.94 221.51 239.21 217.14 266.89 217.15 265.17 231.91"/><polygon class="cls-2" points="250.07 187.3 232.08 196.91 228.6 198.76 226.94 196.36 221.5 188.5 225.55 188.3 211.58 202.68 221.33 185.16 222.71 182.69 225.39 184.96 232.69 191.14 227.56 190.59 242.44 176.64 250.07 187.3"/><polygon class="cls-2" points="75.76 214 103.37 215.91 99.34 220.01 101.07 208.17 101.57 204.72 104.31 205.44 128.1 211.67 103.51 211.07 106.75 208.34 107.8 220.26 108.09 223.65 103.77 224.36 76.45 228.84 75.76 214"/><polygon class="cls-2" points="93.17 177.63 109.17 190.27 104.1 191.25 110.85 184.48 113.33 181.99 114.91 184.33 126.11 200.96 110.97 187.81 115.03 187.67 110.28 195.97 108.82 198.5 105.2 196.94 86.46 188.9 93.17 177.63"/></g><g id="circle"><circle class="cls-3" cx="171.73" cy="171.73" r="168.73"/></g></svg>