<svg xmlns="http://www.w3.org/2000/svg" viewBox="0 0 335.31 335.31"><defs><style>.cls-1{fill:#fff;}.cls-1,.cls-2,.cls-3,.cls-4{stroke:#231f20;}.cls-1,.cls-2,.cls-3{stroke-linecap:round;stroke-linejoin:round;stroke-width:3px;}.cls-2{fill:#ed1c24;}.cls-3,.cls-4{fill:none;}.cls-4{stroke-miterlimit:10;stroke-width:6px;}</style></defs><g id="temperature"><path class="cls-1" d="M204.15,241.59V50.9A22.94,22.94,0,0,0,181.28,28h0A22.94,22.94,0,0,0,158.41,50.9V241.59a47.61,47.61,0,1,0,45.74,0Z" transform="translate(-13.63 -10.87)"/><path class="cls-2" d="M204.15,90.52V242.34a47.62,47.62,0,1,1-45.74,0V90.52Z" transform="translate(-13.63 -10.87)"/><line class="cls-3" x1="164.79" y1="227.77" x2="188.03" y2="227.77"/><line class="cls-3" x1="164.79" y1="206.61" x2="188.03" y2="206.61"/><line class="cls-3" x1="164.79" y1="185.45" x2="188.03" y2="185.45"/><line class="cls-3" x1="164.79" y1="164.29" x2="188.03" y2="164.29"/><line class="cls-3" x1="164.79" y1="143.13" x2="188.03" y2="143.13"/><line class="cls-3" x1="164.79" y1="121.97" x2="188.03" y2="121.97"/><line class="cls-3" x1="164.79" y1="100.82" x2="188.03" y2="100.82"/><line class="cls-3" x1="164.79" y1="79.66" x2="188.03" y2="79.66"/><line class="cls-3" x1="164.79" y1="58.5" x2="188.03" y2="58.5"/><line class="cls-2" x1="210.56" y1="99.75" x2="235.4" y2="86.89"/><line class="cls-2" x1="210.56" y1="118.32" x2="261.6" y2="116.79"/><line class="cls-2" x1="210.56" y1="133.88" x2="231.68" y2="149.7"/><line class="cls-2" x1="123.32" y1="100.59" x2="98.49" y2="87.73"/><line class="cls-2" x1="123.32" y1="119.16" x2="72.29" y2="117.64"/><line class="cls-2" x1="124.59" y1="132.65" x2="103.25" y2="148.63"/></g><g id="circle"><circle class="cls-4" cx="167.65" cy="167.65" r="164.65"/></g></svg>