<svg id="wipes" xmlns="http://www.w3.org/2000/svg" viewBox="0 0 217.01 284.26"><defs><style>.cls-1,.cls-3,.cls-4{fill:#fff;}.cls-1,.cls-2,.cls-3,.cls-4{stroke:#231f20;stroke-linecap:round;stroke-linejoin:round;}.cls-1{stroke-width:5px;}.cls-2{fill:none;}.cls-2,.cls-3{stroke-width:3px;}.cls-4{stroke-width:2.67px;}</style></defs><path class="cls-1" d="M208.2,157.79c2.8,1.39,40,11.15,59.06,19.91,9.39,4.33,16.55,13.12,14.74,22,.2,7.38-3.22,20.36-9.15,24.88l-.7,2.1c0,3.49-11.88,30.4-32.85,38.09-1.2.44-2.39.84-3.56,1.19l.42.21c-1.4,18.52,10.13,32.5,8,39.83-4.29,15-24.81,14.33-35.29,14.33s-61.68-22.19-65.52-30.58c-2.3-5,5.24-42.45,5.24-42.45s-43.86-10.31-48.75-46.66L99.38,198c-5.64-3-8.6-4.89-8.6-4.89l-.35-11.53,8.07.59C88,178.76,74,172.81,71.56,171.41c-3.89-2.2,2.1-88.41,3.85-100.29l.29-1.34c.79-7.49,45.84-21,59.46-26.27,0,0,3.05-.84,4.9-1.39,16.42-4.9,34.24,7.33,43.68,25.16S194.22,156,194.22,156s9-1,14,1.75" transform="translate(-67.77 -38.53)"/><path class="cls-1" d="M171.51,227.68" transform="translate(-67.77 -38.53)"/><path class="cls-2" d="M281.2,195.27c2.45,4.9-1.05,23.42-8.39,29-8.08,6.16-44.38,21-101.34,3.14-51-16-80.72-34.59-80.72-34.59L90.4,181.3" transform="translate(-67.77 -38.53)"/><path class="cls-2" d="M194.88,262.37c9.44,4.89,24.91,9.24,44.38,2.1,21-7.69,32.85-34.6,32.85-38.09" transform="translate(-67.77 -38.53)"/><path class="cls-2" d="M99.83,200.34c4.89,36.34,48.75,46.65,48.75,46.65s-7.54,37.45-5.24,42.46c3.84,8.39,55,30.58,65.52,30.58s31,.7,35.3-14.33c2.09-7.34-9.44-21.31-8-39.84" transform="translate(-67.77 -38.53)"/><path class="cls-3" d="M135,183c-8.73-6.64-21.7-75.79-24.28-89.11C106.12,70.52,123.59,46.76,140,41.86S174.27,49.2,183.7,67s10.48,88.77,10.48,88.77Z" transform="translate(-67.77 -38.53)"/><path class="cls-2" d="M135.13,43.26C121.5,48.5,74,62.48,76.77,69.47s23.44,10.13,28.3,10.13c5.6,0,5.94-1.39,5.94-1.39" transform="translate(-67.77 -38.53)"/><path class="cls-2" d="M75.37,70.87C73.62,82.75,67.63,169,71.53,171.16c3.74,2.12,33.8,14.68,38.44,12.93,5.11-1.93,17.12-7,17.12-7" transform="translate(-67.77 -38.53)"/><path class="cls-2" d="M108.57,185.49s50.49,22.19,59.93,25.86c10.63,4.13,88.59,30.05,111-8" transform="translate(-67.77 -38.53)"/><path class="cls-3" d="M190,157.88c5.24-1.74,15.38-1.74,18.17-.35s40.05,11.16,59.06,19.92c15.55,7.17,25,26.56-2.27,38.09C229.11,230.71,151,201.22,144.39,190.38c-4.09-6.66-1.57-11.18,5.41-14.67S190,157.88,190,157.88Z" transform="translate(-67.77 -38.53)"/><path class="cls-4" d="M185.1,177.8c8.74-3.47,33.45-4.46,52.42,1.4,19.22,5.94,23.76,17.12,18.87,22.36s-34.25,8.74-52.07,3.85S161.34,187.24,185.1,177.8Z" transform="translate(-67.77 -38.53)"/></svg>