<svg id="toilet_paper" data-name="toilet paper" xmlns="http://www.w3.org/2000/svg" viewBox="0 0 127.92 146.65"><defs><style>.cls-1,.cls-3{fill:none;}.cls-1,.cls-2,.cls-3{stroke:#231f20;stroke-linecap:round;stroke-linejoin:round;}.cls-1{stroke-width:3.43px;}.cls-2{fill:#fff;stroke-width:3.85px;}.cls-3{stroke-width:6.42px;}</style></defs><path class="cls-1" d="M250.58,221.7l-.27-84.27-119-.48.26,85.32c0,.33-.06.67-.06,1a6.85,6.85,0,0,0,.06,1v.59h.1c2.06,12.14,27.84,21.84,59.41,22,32.94.14,59.69-10.2,59.74-23.08A9,9,0,0,0,250.58,221.7Z" transform="translate(-126.01 -108.24)"/><ellipse class="cls-2" cx="190.98" cy="134.52" rx="23.32" ry="59.02" transform="matrix(0, -1, 1, 0, -70.32, 216.71)"/><ellipse class="cls-2" cx="190.89" cy="133.31" rx="6.8" ry="16.41" transform="translate(-69.21 215.42) rotate(-89.77)"/><path class="cls-2" d="M241.21,244.19c-8.78-24.15-9.92-57.79-6-83.48,0,0-30.77-.07-56.38-3.24-42.5-5.25-43.41-16.36-46.87-23.19s-3.45,84-.41,94.09C137.34,247.62,205.2,260,241.21,244.19Z" transform="translate(-126.01 -108.24)"/><path class="cls-3" d="M250.72,224a9.6,9.6,0,0,0-.24-2.07l-.26-84.26h-.72a9.3,9.3,0,0,0,.41-2.67c.05-12.88-26.33-23.43-58.93-23.56s-59.06,10.2-59.12,23.08c-3.46-6.84-3.44,84-.4,94.1,5.78,19.24,73.65,31.65,109.66,15.82-.77-2.14-1.49-4.35-2.15-6.61C246.33,234,250.7,229.21,250.72,224Z" transform="translate(-126.01 -108.24)"/></svg>