<svg id="hands" xmlns="http://www.w3.org/2000/svg" viewBox="0 0 300.05 266.88"><defs><style>.cls-1,.cls-2{fill:#fff;}.cls-1,.cls-2,.cls-3{stroke:#231f20;stroke-linecap:round;stroke-linejoin:round;}.cls-1{stroke-width:4.44px;}.cls-2{stroke-width:3px;}.cls-3{fill:none;stroke-width:6px;}</style></defs><path class="cls-1" d="M285.42,55.83l-100.8,50.49L200.38,66a14.66,14.66,0,0,0-8.29-18.94h0a14.67,14.67,0,0,0-18.94,8.3l-36.57,93.55L41.65,191.26a13.87,13.87,0,0,0-7,18.27l26.57,59.58a13.87,13.87,0,0,0,18.27,7l107.3-47.86a14.65,14.65,0,0,0,15,1.14l100.91-50.54a14.62,14.62,0,1,0-13.1-26.14l-60.09,30.1-.12-.26,90-45.08a14.62,14.62,0,1,0-13.09-26.14l-88.81,44.49-.07-.15a11.75,11.75,0,0,0,1.15-.5l100.91-50.55A14.66,14.66,0,0,0,326,85h0a14.66,14.66,0,0,0-19.62-6.52L205.44,129c-.16.07-.3.17-.46.25-.09-.1-.18-.21-.28-.31l93.81-47A14.67,14.67,0,0,0,305,62.35h0A14.66,14.66,0,0,0,285.42,55.83Z" transform="translate(-29.79 -43.31)"/><path class="cls-2" d="M239.86,103.55l-95.27,60.28,11.67-41.68a14.62,14.62,0,0,0-28.16-7.88L101,211l-26.8,15.32c-6.6,3.77-3.58,14.91.19,21.51l30.73,53.63c3.78,6.6,8.58,9.29,15.19,5.51l38.55-22a14.65,14.65,0,0,0,15-.35l95.37-60.35a14.61,14.61,0,1,0-15.63-24.7l-56.8,35.94-.14-.25,85-53.81a14.66,14.66,0,0,0,4.53-20.17h0a14.66,14.66,0,0,0-20.17-4.54l-83.93,53.11-.09-.14a11.91,11.91,0,0,0,1.1-.62l95.37-60.34A14.62,14.62,0,0,0,262.94,124l-95.37,60.34-.43.31-.31-.29,88.66-56.11A14.66,14.66,0,0,0,260,108.08h0A14.66,14.66,0,0,0,239.86,103.55Z" transform="translate(-29.79 -43.31)"/><path class="cls-3" d="M284.76,56.07,184,106.56l15.76-40.31a14.67,14.67,0,0,0-8.3-18.94h0a14.65,14.65,0,0,0-18.93,8.29l-19.11,48.89a14.58,14.58,0,0,0-24,6.79l-13,46.6L41,191.5a13.87,13.87,0,0,0-7,18.27l26.58,59.58a13.88,13.88,0,0,0,18.27,7l8.82-3.94,15.11,26.43A13.87,13.87,0,0,0,121.63,304l38.56-22a14.65,14.65,0,0,0,15-.35l95.37-60.34a14.59,14.59,0,0,0-1.66-25.59L302,179.08a14.62,14.62,0,0,0-13.09-26.14L284.79,155l-.24-.2,34.14-17.1a14.62,14.62,0,0,0-13.1-26.14l-23.1,11.57-.08-.07,36.36-18.21a14.67,14.67,0,0,0,6.53-19.62h0a14.66,14.66,0,0,0-19.62-6.52l-46.82,23.45-.3-.28,39.29-19.68a14.66,14.66,0,0,0,6.52-19.62h0A14.65,14.65,0,0,0,284.76,56.07Z" transform="translate(-29.79 -43.31)"/></svg>