<svg id="wipes" xmlns="http://www.w3.org/2000/svg" viewBox="0 0 283.21 204.48"><defs><style>.cls-1,.cls-3,.cls-6{fill:none;}.cls-1,.cls-3,.cls-4,.cls-5,.cls-6{stroke:#231f20;stroke-linecap:round;stroke-linejoin:round;}.cls-1,.cls-5{stroke-width:3.43px;}.cls-2,.cls-4,.cls-5{fill:#fff;}.cls-3,.cls-4{stroke-width:3.85px;}.cls-6{stroke-width:6.42px;}</style></defs><path class="cls-1" d="M70,204" transform="translate(-49.94 -72.89)"/><path class="cls-1" d="M329.62,216.59l-39.55-81.77s-7,1-9.84,1c-4.6,0-9.71-12.82-15.12-14.89-11.19-4.29-162.55,22-170.07,22.86C79.58,145.56,75,162.94,68.72,167s-15.9,6-15.9,6l24.35,87.75" transform="translate(-49.94 -72.89)"/><rect class="cls-2" x="166.23" y="106.5" width="47.83" height="48.3" transform="translate(-50.93 -71.45) rotate(-0.43)"/><path class="cls-3" d="M77.17,260.71c19.42-6.24,19.23-30.39,31.41-33.07,20-4.39,182.4-35.38,192.52-29.83,8.73,4.79,10.42,20.27,13.76,20.53s14.76-1.75,14.76-1.75-11.48,2.2-13.57,4.09c-3,2.7-10.6,19.16-19.52,23.36C290.45,246.9,117,280.11,110.1,274.53S93.06,253.79,77.17,260.71Z" transform="translate(-49.94 -72.89)"/><polygon class="cls-3" points="191.23 106.61 100.11 121.13 91.21 90.49 177.05 76.33 191.23 106.61"/><path class="cls-4" d="M191.65,153.8s-2.67-35.81,8.48-57c-15.57,7-50.17-10-67.54-2.19,5.89,13.61,25.49,48,30.24,82.4l56.21-8.4c-6.31-18.55.25-34.82,3.49-45.49s10.91-35.52,10.91-35.52" transform="translate(-49.94 -72.89)"/><path class="cls-5" d="M201.14,89.91l.5-12.65C205,76,235,82.74,234.34,86.94a3,3,0,0,1-1.24,1.81c-3.85,3-16,4.46-27.81,3.2-14-1.49-21.6-3-34.25,1.71" transform="translate(-49.94 -72.89)"/><line class="cls-3" x1="103.74" y1="105.3" x2="177.29" y2="94.6"/><line class="cls-3" x1="234.51" y1="62.9" x2="273.79" y2="144.44"/><line class="cls-3" x1="9.48" y1="97.39" x2="33.81" y2="183.03"/><path class="cls-6" d="M169.9,94.92c-13.56-2.55-27.72-5.45-37-1.26,3.39,7.82,11.31,22.51,18.33,40.13-29.07,4.64-53,8.69-55.88,9C79.91,144.56,75.35,162,69.05,166s-15.9,6-15.9,6L77.5,259.71,87.2,258c10.52,1,17.9,11.17,23.23,15.51,6.85,5.58,180.35-27.63,186.43-30.49,8.92-4.19,16.52-20.65,19.52-23.36,2.09-1.89,13.57-4.09,13.57-4.09l-.21,0,.21,0L290.4,133.82s-7,1-9.84,1c-4.61,0-9.71-12.82-15.12-14.89-3.5-1.34-20.68.31-42.89,3.23.1-.34.21-.67.31-1,2.82-9.32,9-29.48,10.56-34.41h0a3,3,0,0,0,1.24-1.81c.63-4.2-29.37-11-32.7-9.68q-.5,12.66-.5,12.65" transform="translate(-49.94 -72.89)"/><path class="cls-6" d="M169.9,94.92" transform="translate(-49.94 -72.89)"/><path class="cls-6" d="M200.46,95.84" transform="translate(-49.94 -72.89)"/><path class="cls-6" d="M200.09,89.82l1.22-.12c-7.86-.66-24-.07-32.86,3.24" transform="translate(-49.94 -72.89)"/></svg>