<svg xmlns="http://www.w3.org/2000/svg" viewBox="0 0 152.04 276.93"><defs><style>.cls-1,.cls-3{fill:#fff;}.cls-1,.cls-2,.cls-3{stroke:#231f20;stroke-linecap:round;stroke-linejoin:round;}.cls-1{stroke-width:2px;}.cls-2{fill:none;}.cls-2,.cls-3{stroke-width:4px;}</style></defs><g id="woman"><path class="cls-1" d="M220.86,316.06c.73,3.58-.53,7-10.35,8.05s-24.83-.75-25.21-4.39,14-7.76,23.85-8.77S220.32,313.45,220.86,316.06Z" transform="translate(-109.23 -52.97)"/><path class="cls-1" d="M210.77,325.49h0c4.34.24,8.24-6.05,8.68-14,.82-19.55,4.76-48.61,1.32-57.88-1.94-5.22,1.35-10.43,1.35-10.43,1.23-2.63-2-9.3-6.3-9.54h0c-4.33-.24-11.29-.66-11.73,7.26a8,8,0,0,0-1.85,10.33c5,9.26,3.61,27.56,5.55,55.62C208.7,319.93,206.44,325.25,210.77,325.49Z" transform="translate(-109.23 -52.97)"/><path class="cls-1" d="M217.8,67.43c4-13.89,14.51-16.05,20.68-5.87,4.51,7.44-1.23,13.17,2.16,22.12s11.73,13.38,18.52,11.53c-10.8,8.64-21.65,7.61-26-.41s-2.41-16.57-4.27-22.43-4.63.31-4.63.31Z" transform="translate(-109.23 -52.97)"/><path class="cls-1" d="M219.31,102.54c1.79,6.13,4.81,7.59-1,9.25-8.15,2.35-5.19-2.08-6-7.47-.54-3.71-10.41-11.38-.11-14.32C222.15,87.18,218.32,99.16,219.31,102.54Z" transform="translate(-109.23 -52.97)"/><path class="cls-1" d="M226.86,165.21c6.41,27.78,14.56,42.36-11.65,44.48-32.74,2.64-4.23-49.78-15.88-62-10.06-10.51-6.39-36,15.88-41.83C239.57,99.54,222.1,144.55,226.86,165.21Z" transform="translate(-109.23 -52.97)"/><ellipse class="cls-1" cx="104.11" cy="30.21" rx="13.74" ry="19.06"/><polygon class="cls-1" points="90.89 121.76 119.75 120.97 134.58 191.13 81.36 191.93 90.89 121.76"/><path class="cls-1" d="M219.18,319.57c.74,3.58-.53,7-10.35,8.05s-24.83-.75-25.2-4.39,14-7.77,23.85-8.78S218.65,317,219.18,319.57Z" transform="translate(-109.23 -52.97)"/><path class="cls-1" d="M214.09,112.21a8,8,0,0,0-9.17,6.49l-1.62,32.74c-.19,1.1-.42,2.29-.58,3.46l-16.63,21.83a48.58,48.58,0,0,0-3.22,3.69c-.34,0-.67,0-1,0-4.61,0-8.34,1.58-8.34,3.53s3.73,3.54,8.34,3.54c4.15,0,7.57-1.29,8.21-3a9,9,0,0,0,.79-.73l20.65-22.36a8.52,8.52,0,0,0,1.21-1.72,7.91,7.91,0,0,0,2-4l5.86-34.24A8,8,0,0,0,214.09,112.21Z" transform="translate(-109.23 -52.97)"/><path class="cls-2" d="M243.91,243.89l-10.56-49.95c-.44-7.17-3.58-16.8-6.39-29-4.38-19,10-58.51-6.55-59.86a27.14,27.14,0,0,1-1-2.82,7.81,7.81,0,0,1-.17-2.09c4.69-3,8-9.62,8-17.27a24.28,24.28,0,0,0-2.54-11c.72-1.35,2.86-4.6,4.37.2,1.85,5.86,0,14.4,4.27,22.43s15.18,9.06,26,.41c-6.8,1.85-15.13-2.56-18.53-11.52s2.35-14.69-2.16-22.13c-5.87-9.69-15.64-8.18-20,3.94a10.43,10.43,0,0,0-5.1-1.38c-7.59,0-13.74,8.54-13.74,19.06,0,9.59,5.11,17.5,11.75,18.84a6.7,6.7,0,0,1,1,2.3,16.41,16.41,0,0,1,.15,2.48c-19.82,7.11-22.82,30.88-13.19,40.94,1.74,1.83,2.57,4.57,2.86,7.88l-16.1,21.12a46.86,46.86,0,0,0-3.22,3.7c-.34,0-.67-.05-1-.05-4.61,0-8.34,1.59-8.34,3.54s3.73,3.54,8.34,3.54c4.15,0,7.57-1.29,8.21-3a9,9,0,0,0,.79-.73L201,172.61l-.27,1.88h-.53l-9.53,70.18,10.89-.16a8,8,0,0,0,.76,6.52c5,9.26,3.61,27.56,5.56,55.63.1,1.5.16,2.9.2,4.2-9.76,1.2-23.06,5.15-22.7,8.64a1.71,1.71,0,0,0,.39.83c-1.36.89-2.15,1.8-2.06,2.68.37,3.64,15.39,5.4,25.21,4.39,8.21-.84,10.43-3.4,10.51-6.31a5.07,5.07,0,0,0,1.52-5.25,6.16,6.16,0,0,0-1.53-3.2c0-.45.09-.89.11-1.35.82-19.54,4.77-48.61,1.33-57.88-1.38-3.7-.13-7.37.72-9.2Z" transform="translate(-109.23 -52.97)"/></g><g id="register"><rect class="cls-3" x="2" y="134.76" width="66.75" height="140.17"/><polygon class="cls-3" points="29.2 119.39 16.45 99.42 8.58 99.42 8.58 119.39 4.04 119.39 4.04 134.12 42.76 134.12 42.76 119.39 29.2 119.39"/><line class="cls-1" x1="8.58" y1="119.1" x2="29.2" y2="119.1"/></g></svg>