<svg id="woman_outline" data-name="woman outline" xmlns="http://www.w3.org/2000/svg" viewBox="0 0 80.64 280.65"><defs><style>.cls-1{fill:#fff;stroke-width:2px;}.cls-1,.cls-2{stroke:#231f20;stroke-linecap:round;stroke-linejoin:round;}.cls-2{fill:none;stroke-width:4px;}</style></defs><path class="cls-1" d="M186.16,318c-.74,3.64.54,7.15,10.5,8.17s25.19-.76,25.57-4.45S208,313.83,198,312.8,186.7,315.35,186.16,318Z" transform="translate(-144.93 -51.18)"/><path class="cls-1" d="M196.4,327.56h0c-4.4.24-8.36-6.14-8.81-14.18-.83-19.83-4.83-49.32-1.34-58.72,2-5.29-1.37-10.58-1.37-10.58-1.25-2.66,2-9.44,6.39-9.68h0c4.4-.24,11.46-.67,11.9,7.37a8.11,8.11,0,0,1,1.88,10.47c-5.1,9.41-3.66,28-5.63,56.44C198.5,321.92,200.79,327.31,196.4,327.56Z" transform="translate(-144.93 -51.18)"/><path class="cls-1" d="M189.26,65.74c-4.07-14.09-14.72-16.29-21-5.95-4.57,7.54,1.25,13.36-2.19,22.44S154.19,95.8,147.3,93.92c11,8.77,22,7.73,26.36-.41S176.11,76.7,178,70.75s4.7.31,4.7.31Z" transform="translate(-144.93 -51.18)"/><path class="cls-1" d="M187.73,101.36c-1.81,6.22-4.87,7.7,1,9.39,8.27,2.38,5.27-2.12,6.07-7.59.54-3.76,10.56-11.53.1-14.52C184.85,85.78,188.74,97.93,187.73,101.36Z" transform="translate(-144.93 -51.18)"/><path class="cls-1" d="M180.07,164.94c-6.5,28.19-14.77,43,11.82,45.13,33.22,2.68,4.3-50.5,16.12-62.86,10.2-10.66,6.48-36.55-16.12-42.44C167.18,98.32,184.91,144,180.07,164.94Z" transform="translate(-144.93 -51.18)"/><ellipse class="cls-1" cx="48.86" cy="30.54" rx="13.94" ry="19.33"/><polygon class="cls-1" points="62.28 123.43 33 122.63 17.95 193.81 71.95 194.62 62.28 123.43"/><path class="cls-1" d="M187.86,321.55c-.74,3.63.54,7.14,10.5,8.17s25.2-.77,25.58-4.45-14.24-7.88-24.2-8.91S188.4,318.91,187.86,321.55Z" transform="translate(-144.93 -51.18)"/><path class="cls-1" d="M193,111.18a8.07,8.07,0,0,1,9.3,6.58L204,151c.22,1.31.49,2.74.65,4.12l10.68,25.44c1.83,3.42,4.47,7.83,1.77,9.27s-6.4-.17-8.23-3.59l-14.42-26.89a8,8,0,0,1-2-4.1l-5.94-34.74A8.07,8.07,0,0,1,193,111.18Z" transform="translate(-144.93 -51.18)"/><path class="cls-2" d="M162.51,244.81l10.7-50.67c.46-7.27,3.64-17,6.49-29.38,4.44-19.26-10.15-59.36,6.64-60.72a26.52,26.52,0,0,0,1-2.86,7.67,7.67,0,0,0,.18-2.13c-4.76-3.07-8.06-9.75-8.06-17.51a24.66,24.66,0,0,1,2.57-11.17c-.73-1.37-2.9-4.67-4.43.2-1.88,6,0,14.61-4.34,22.76s-15.39,9.18-26.35.41c6.89,1.88,15.34-2.59,18.79-11.69s-2.38-14.9,2.19-22.44c6-9.83,15.87-8.3,20.33,4a10.57,10.57,0,0,1,5.17-1.39c7.7,0,13.94,8.65,13.94,19.33,0,9.73-5.18,17.75-11.92,19.11a7,7,0,0,0-1,2.33,17,17,0,0,0-.14,2.52c20.1,7.21,23.14,31.32,13.38,41.53-1.93,2-2.76,5.12-3,8.87l10.26,24.45c1.84,3.42,4.48,7.83,1.78,9.27s-6.4-.17-8.23-3.59l-.1-.18,8.12,59.77-11.05-.17a8,8,0,0,1-.77,6.61c-5.1,9.41-3.66,28-5.64,56.44-.1,1.52-.16,2.94-.2,4.26,9.9,1.22,23.39,5.22,23,8.77a1.69,1.69,0,0,1-.39.84c1.38.9,2.18,1.82,2.09,2.71-.38,3.69-15.61,5.48-25.57,4.46-8.33-.86-10.58-3.46-10.67-6.41a5.1,5.1,0,0,1-1.53-5.32,6.2,6.2,0,0,1,1.54-3.25c0-.45-.08-.9-.11-1.36-.83-19.83-4.84-49.32-1.34-58.72,1.39-3.76.13-7.47-.73-9.33Z" transform="translate(-144.93 -51.18)"/></svg>